<svg xmlns="http://www.w3.org/2000/svg" viewBox="0 0 387 64" width="387" height="64" role="img" aria-label="Blind Reckoning"><title>Blind Reckoning</title><path d="M12.0 28.0 A20.0 20.0 0 0 1 52.0 28.0" fill="none" stroke="#D8A445" stroke-width="5.0"/><circle cx="32.0" cy="28.0" r="4.5" fill="#D8A445"/><rect x="8.0" y="36.5" width="48.0" height="4.0" rx="1.0" fill="#ECE6D8"/><rect x="8.0" y="45.0" width="48.0" height="4.0" rx="1.0" fill="#ECE6D8"/><rect x="8.0" y="53.5" width="48.0" height="4.0" rx="1.0" fill="#ECE6D8"/><path d="M97.7 18Q100.31 18 102.39 18.9Q104.46 19.79 105.69 21.32Q106.92 22.85 106.92 24.76Q106.92 26.36 105.95 27.71Q104.98 29.05 103.15 29.98Q106.06 30.81 107.71 32.88Q109.35 34.95 109.35 37.75Q109.35 40.18 108.08 42.04Q106.81 43.91 104.57 44.95Q102.33 46 99.38 46H85.68Q85.12 46 85.12 45.44V44.32Q85.12 43.76 85.68 43.76Q88.44 43.76 88.44 40.21V23.79Q88.44 20.24 85.68 20.24Q85.12 20.24 85.12 19.68V18.56Q85.12 18 85.68 18ZM96.51 29.27Q98.82 29.27 100.07 28.08Q101.32 26.89 101.32 24.76Q101.32 22.63 100.09 21.43Q98.86 20.24 96.66 20.24H94.38V29.27ZM97.78 43.76Q100.61 43.76 102.18 42.17Q103.75 40.59 103.75 37.75Q103.75 31.93 96.54 31.93H94.38V40.21Q94.38 41.93 95.01 42.85Q95.65 43.76 96.84 43.76ZM122.3 43.76Q122.86 43.76 122.86 44.32V45.44Q122.86 46 122.23 46H111.66Q111.03 46 111.03 45.44V44.32Q111.03 43.76 111.59 43.76H111.66Q113.05 43.76 113.7 42.73Q114.35 41.71 114.35 40.21V26.21Q114.35 25.17 114.22 24.23Q114.09 23.3 113.64 22.65Q113.19 21.99 112.15 21.88Q111.7 21.85 111.7 21.4V20.13Q111.7 19.9 111.85 19.83Q112 19.75 112.26 19.64Q114.91 18.67 116.5 17.83Q118.09 16.99 119.13 16.21Q119.21 16.13 119.28 16.13H119.39Q119.47 16.13 119.47 16.21V40.18Q119.47 41.67 120.14 42.71Q120.81 43.76 122.19 43.76ZM135.26 43.76Q135.82 43.76 135.82 44.32V45.44Q135.82 46 135.18 46H124.62Q123.98 46 123.98 45.44V44.32Q123.98 43.76 124.54 43.76H124.62Q126 43.76 126.65 42.73Q127.31 41.71 127.31 40.21V36.26Q127.31 35.4 127.18 34.54Q127.05 33.68 126.6 33.05Q126.15 32.41 125.1 32.3Q124.66 32.26 124.66 31.81V30.54Q124.66 30.32 124.81 30.23Q124.95 30.13 125.22 30.06Q128.17 29.09 129.75 28.06Q131.34 27.03 132.09 26.25Q132.16 26.18 132.23 26.18H132.35Q132.42 26.18 132.42 26.25V40.18Q132.42 41.67 133.09 42.71Q133.77 43.76 135.15 43.76ZM129.92 18.37Q130.89 18.37 131.82 19.31Q132.76 20.24 132.76 21.17Q132.76 22.11 131.82 23.04Q130.89 23.97 129.92 23.97Q129.02 23.97 128.05 23.04Q127.12 22.14 127.12 21.17Q127.12 20.24 128.05 19.31Q128.99 18.37 129.92 18.37ZM158.44 33.83V40.21Q158.44 42.27 159.1 43.01Q159.75 43.76 160.83 43.76H161.13Q161.69 43.76 161.69 44.32V45.44Q161.69 46 161.13 46H151.2Q150.64 46 150.64 45.44V44.32Q150.64 43.76 151.2 43.76H151.46Q152.25 43.76 152.73 43.01Q153.22 42.27 153.22 40.21V33.83Q153.22 32.04 152.66 31.09Q152.1 30.13 150.53 30.13Q149.59 30.13 148.66 30.6Q147.73 31.07 147.02 31.79Q146.31 32.52 145.97 33.34V40.21Q145.97 41.71 146.63 42.73Q147.28 43.76 148.36 43.76H148.44Q149 43.76 149 44.32V45.44Q149 46 148.44 46H137.95Q137.39 46 137.39 45.44V44.32Q137.39 43.76 137.95 43.76H138.02Q139.4 43.76 140.07 42.73Q140.75 41.71 140.75 40.21V35.51Q140.75 34.5 140.62 33.57Q140.49 32.63 140.02 31.98Q139.55 31.33 138.51 31.22Q138.1 31.18 138.1 30.73V29.46Q138.1 29.09 138.62 28.98Q141.31 28.57 143.23 27.71Q145.15 26.85 145.9 26.33Q146.09 26.18 146.2 26.18H146.23Q146.31 26.18 146.31 26.25Q146.31 26.33 146.27 26.55L145.64 31.14Q146.16 30.28 147.02 29.29Q147.88 28.3 149.15 27.58Q150.42 26.85 152.1 26.85Q154.11 26.85 155.38 27.45Q156.65 28.04 157.3 29.05Q157.96 30.06 158.2 31.29Q158.44 32.52 158.44 33.83ZM180.69 39.09Q180.69 40.44 181.1 41.5Q181.51 42.57 182.9 42.75Q183.34 42.79 183.34 43.24V44.47Q183.34 44.99 182.78 44.99Q180.95 44.99 179.74 45.2Q178.53 45.4 177.65 45.72Q176.77 46.04 175.91 46.41Q175.77 46.49 175.65 46.49H175.58Q175.47 46.49 175.47 46.37Q175.54 45.51 175.63 44.69Q175.73 43.87 175.88 43.05Q175.69 43.54 175.07 44.36Q174.46 45.18 173.28 45.83Q172.11 46.49 170.2 46.49Q168.93 46.49 167.5 45.96Q166.06 45.44 164.79 44.28Q163.52 43.13 162.72 41.24Q161.91 39.35 161.91 36.63Q161.91 33.16 163.17 31.01Q164.42 28.86 166.41 27.86Q168.41 26.85 170.65 26.85Q173.49 26.85 175.47 28.6V26.21Q175.47 25.21 175.34 24.27Q175.21 23.34 174.76 22.69Q174.31 22.03 173.26 21.92Q172.82 21.88 172.82 21.43V20.17Q172.82 19.94 172.97 19.85Q173.11 19.75 173.38 19.68Q176.33 18.71 177.99 17.74Q179.65 16.77 180.39 16.21Q180.51 16.13 180.58 16.13H180.62Q180.69 16.13 180.69 16.21ZM175.47 33.9Q175.47 32.15 174.33 30.92Q173.19 29.69 171.32 29.69Q169.53 29.69 168.52 30.47Q167.51 31.25 167.12 32.56Q166.73 33.87 166.73 35.43Q166.73 39.02 168.17 41.11Q169.61 43.2 171.88 43.2Q172.89 43.2 173.64 42.7Q174.38 42.19 174.85 41.45Q175.32 40.7 175.47 40.03ZM222.17 43.76Q222.73 43.76 222.73 44.32V45.44Q222.73 46 222.17 46H210.71Q210.15 46 210.15 45.44V44.32Q210.15 43.76 210.71 43.76H210.93Q211.87 43.76 212.31 43.22Q212.76 42.68 212.76 41.93Q212.76 41.07 212.28 40.21L208.88 33.87Q207.76 33.98 206.45 33.98H203.65V40.21Q203.65 41.71 204.21 42.73Q204.77 43.76 206.15 43.76H206.38Q206.94 43.76 206.94 44.32V45.44Q206.94 46 206.38 46H194.92Q194.36 46 194.36 45.44V44.32Q194.36 43.76 194.92 43.76H195.18Q196.6 43.76 197.14 42.73Q197.68 41.71 197.68 40.21V23.79Q197.68 22.26 197.1 21.25Q196.52 20.24 194.95 20.24Q194.39 20.24 194.39 19.68V18.56Q194.39 18 194.95 18H208.66Q211.68 18 213.92 19.08Q216.16 20.17 217.39 21.96Q218.62 23.75 218.62 25.88Q218.62 27.78 217.62 29.57Q216.61 31.37 214.18 32.52L218.25 40.21Q219 41.59 219.8 42.68Q220.6 43.76 221.98 43.76ZM205.82 31.33Q209.55 31.33 211.29 29.87Q213.02 28.42 213.02 25.88Q213.02 23.3 211.42 21.77Q209.81 20.24 207.01 20.24H203.65V31.33ZM228.07 39.32Q228.7 40.89 230.1 42.12Q231.5 43.35 233.67 43.35Q234.86 43.35 236.17 42.68Q237.48 42.01 238.45 40.59Q238.56 40.4 238.75 40.4Q238.93 40.4 239.14 40.51Q239.34 40.62 240.24 41.15Q240.39 41.26 240.39 41.45Q240.39 41.71 240.17 42.08Q239.12 44.02 237.33 45.25Q235.54 46.49 232.66 46.49Q229.56 46.49 227.32 45.1Q225.08 43.72 223.87 41.45Q222.66 39.17 222.66 36.48Q222.66 33.9 223.42 32.06Q224.19 30.21 225.46 29.07Q226.73 27.93 228.31 27.39Q229.9 26.85 231.54 26.85Q233.41 26.85 234.83 27.58Q236.25 28.3 237.23 29.42Q238.22 30.54 238.73 31.79Q239.23 33.05 239.23 34.13Q239.23 34.43 238.9 34.58ZM233.63 33.98Q233.63 32.19 232.77 31.03Q231.91 29.87 230.61 29.87Q229.08 29.87 228.18 31.09Q227.29 32.3 227.29 34.13Q227.29 34.69 227.34 35.51Q227.4 36.33 227.62 37ZM257.64 40.96Q257.94 41.18 257.94 41.45Q257.94 41.52 257.86 41.74Q256.78 44.13 254.67 45.31Q252.56 46.49 250.06 46.49Q247.97 46.49 246.25 45.57Q244.53 44.66 243.34 43.13Q242.14 41.59 241.58 39.69Q241.02 37.79 241.17 35.77Q241.43 32.67 242.89 30.69Q244.35 28.71 246.42 27.78Q248.49 26.85 250.58 26.85Q253.05 26.85 254.58 27.59Q256.11 28.34 256.93 29.54Q257.75 30.73 258.05 32.04Q258.09 32.19 258.09 32.3Q258.09 32.6 257.64 32.71L253.34 33.83Q253.12 33.9 253.01 33.9Q252.75 33.9 252.75 33.64Q252.75 33.49 252.77 33.34Q252.78 33.19 252.78 32.93Q252.78 31.74 252.04 30.81Q251.29 29.87 249.72 29.87Q248.3 29.87 247.48 30.77Q246.66 31.66 246.31 33.06Q245.95 34.46 245.95 35.99Q245.95 37.82 246.44 39.47Q246.92 41.11 248.02 42.14Q249.13 43.16 251.03 43.16Q252.52 43.16 253.79 42.43Q255.06 41.71 255.88 40.44Q256.03 40.18 256.33 40.18Q256.52 40.18 256.67 40.29ZM281.08 43.76Q281.57 43.76 281.57 44.32V45.44Q281.57 46 281.01 46H271.86Q271.3 46 271.3 45.44V44.28Q271.3 43.76 271.79 43.76H272.35Q272.72 43.76 273.04 43.61Q273.35 43.46 273.35 43.2Q273.35 42.94 273.06 42.64L268.13 37.3L267.34 38.01V40.21Q267.34 41.67 267.47 42.43Q267.61 43.2 268.03 43.48Q268.46 43.76 269.36 43.76Q269.92 43.76 269.92 44.32V45.44Q269.92 46 269.36 46H259.39Q258.83 46 258.83 45.44V44.32Q258.83 43.76 259.39 43.76Q260.77 43.76 261.45 42.73Q262.12 41.71 262.12 40.21V26.21Q262.12 25.21 261.99 24.27Q261.86 23.34 261.39 22.69Q260.92 22.03 259.88 21.92Q259.47 21.88 259.47 21.43V20.17Q259.47 19.94 259.6 19.85Q259.73 19.75 259.99 19.68Q262.98 18.71 264.62 17.74Q266.26 16.77 267.01 16.21Q267.12 16.13 267.19 16.13H267.27Q267.34 16.13 267.34 16.21V34.73L271.9 30.58Q272.2 30.28 272.2 30.06Q272.2 29.57 271.45 29.57H270.33Q269.85 29.57 269.85 29.01V27.89Q269.85 27.33 270.41 27.33H278.69Q279.25 27.33 279.25 27.89V29.01Q279.25 29.57 278.77 29.57H278.32Q277.24 29.57 276.4 30.13Q275.56 30.69 274.1 32L271.23 34.58L279.22 42.6Q279.85 43.24 280.22 43.5Q280.6 43.76 280.97 43.76ZM290.27 26.85Q292.39 26.85 294.21 27.69Q296.02 28.53 297.32 29.97Q298.63 31.4 299.36 33.18Q300.09 34.95 300.09 36.85Q300.09 39.62 298.78 41.8Q297.47 43.98 295.34 45.23Q293.22 46.49 290.71 46.49Q288.59 46.49 286.79 45.66Q285 44.84 283.68 43.44Q282.35 42.04 281.62 40.23Q280.9 38.42 280.9 36.44Q280.9 33.72 282.17 31.55Q283.43 29.39 285.56 28.12Q287.69 26.85 290.27 26.85ZM291.87 43.46Q292.58 43.46 293.44 43.09Q294.3 42.71 294.95 41.78Q295.61 40.85 295.61 39.21Q295.61 37.9 295.1 36.31Q294.6 34.73 293.72 33.25Q292.84 31.78 291.67 30.82Q290.49 29.87 289.11 29.87Q287.58 29.87 286.46 31.01Q285.34 32.15 285.34 34.13Q285.34 35.4 285.84 37Q286.35 38.61 287.22 40.08Q288.1 41.56 289.3 42.51Q290.49 43.46 291.87 43.46ZM322.45 33.83V40.21Q322.45 42.27 323.1 43.01Q323.75 43.76 324.84 43.76H325.14Q325.7 43.76 325.7 44.32V45.44Q325.7 46 325.14 46H315.21Q314.65 46 314.65 45.44V44.32Q314.65 43.76 315.21 43.76H315.47Q316.25 43.76 316.74 43.01Q317.22 42.27 317.22 40.21V33.83Q317.22 32.04 316.66 31.09Q316.1 30.13 314.53 30.13Q313.6 30.13 312.67 30.6Q311.73 31.07 311.02 31.79Q310.31 32.52 309.98 33.34V40.21Q309.98 41.71 310.63 42.73Q311.29 43.76 312.37 43.76H312.44Q313 43.76 313 44.32V45.44Q313 46 312.44 46H301.95Q301.39 46 301.39 45.44V44.32Q301.39 43.76 301.95 43.76H302.03Q303.41 43.76 304.08 42.73Q304.75 41.71 304.75 40.21V35.51Q304.75 34.5 304.62 33.57Q304.49 32.63 304.02 31.98Q303.56 31.33 302.51 31.22Q302.1 31.18 302.1 30.73V29.46Q302.1 29.09 302.62 28.98Q305.31 28.57 307.23 27.71Q309.16 26.85 309.9 26.33Q310.09 26.18 310.2 26.18H310.24Q310.31 26.18 310.31 26.25Q310.31 26.33 310.28 26.55L309.64 31.14Q310.17 30.28 311.02 29.29Q311.88 28.3 313.15 27.58Q314.42 26.85 316.1 26.85Q318.12 26.85 319.39 27.45Q320.66 28.04 321.31 29.05Q321.96 30.06 322.21 31.29Q322.45 32.52 322.45 33.83ZM338.46 43.76Q339.02 43.76 339.02 44.32V45.44Q339.02 46 338.39 46H327.82Q327.19 46 327.19 45.44V44.32Q327.19 43.76 327.75 43.76H327.82Q329.21 43.76 329.86 42.73Q330.51 41.71 330.51 40.21V36.26Q330.51 35.4 330.38 34.54Q330.25 33.68 329.8 33.05Q329.35 32.41 328.31 32.3Q327.86 32.26 327.86 31.81V30.54Q327.86 30.32 328.01 30.23Q328.16 30.13 328.42 30.06Q331.37 29.09 332.96 28.06Q334.54 27.03 335.29 26.25Q335.37 26.18 335.44 26.18H335.55Q335.63 26.18 335.63 26.25V40.18Q335.63 41.67 336.3 42.71Q336.97 43.76 338.35 43.76ZM333.13 18.37Q334.1 18.37 335.03 19.31Q335.96 20.24 335.96 21.17Q335.96 22.11 335.03 23.04Q334.1 23.97 333.13 23.97Q332.23 23.97 331.26 23.04Q330.33 22.14 330.33 21.17Q330.33 20.24 331.26 19.31Q332.19 18.37 333.13 18.37ZM361.65 33.83V40.21Q361.65 42.27 362.3 43.01Q362.95 43.76 364.04 43.76H364.34Q364.9 43.76 364.9 44.32V45.44Q364.9 46 364.34 46H354.41Q353.85 46 353.85 45.44V44.32Q353.85 43.76 354.41 43.76H354.67Q355.45 43.76 355.94 43.01Q356.42 42.27 356.42 40.21V33.83Q356.42 32.04 355.86 31.09Q355.3 30.13 353.73 30.13Q352.8 30.13 351.87 30.6Q350.93 31.07 350.22 31.79Q349.51 32.52 349.18 33.34V40.21Q349.18 41.71 349.83 42.73Q350.49 43.76 351.57 43.76H351.64Q352.2 43.76 352.2 44.32V45.44Q352.2 46 351.64 46H341.15Q340.59 46 340.59 45.44V44.32Q340.59 43.76 341.15 43.76H341.23Q342.61 43.76 343.28 42.73Q343.95 41.71 343.95 40.21V35.51Q343.95 34.5 343.82 33.57Q343.69 32.63 343.22 31.98Q342.76 31.33 341.71 31.22Q341.3 31.18 341.3 30.73V29.46Q341.3 29.09 341.82 28.98Q344.51 28.57 346.43 27.71Q348.36 26.85 349.1 26.33Q349.29 26.18 349.4 26.18H349.44Q349.51 26.18 349.51 26.25Q349.51 26.33 349.48 26.55L348.84 31.14Q349.37 30.28 350.22 29.29Q351.08 28.3 352.35 27.58Q353.62 26.85 355.3 26.85Q357.32 26.85 358.59 27.45Q359.86 28.04 360.51 29.05Q361.16 30.06 361.41 31.29Q361.65 32.52 361.65 33.83ZM384.35 26.21Q384.5 26.18 384.65 26.18Q384.83 26.18 384.83 26.74Q384.83 28.57 384.14 29.57Q383.45 30.58 382.18 30.58Q383.08 32.07 383.08 34.02Q383.08 35.99 382.09 37.62Q381.1 39.24 379.27 40.19Q377.44 41.15 374.86 41.15Q372.25 41.15 370.35 40.1Q369.86 40.47 369.86 41.03Q369.86 41.59 370.27 41.99Q370.68 42.38 371.86 42.62Q373.03 42.86 375.31 42.98Q376.95 43.05 378.5 43.31Q380.05 43.57 381.29 44.15Q382.52 44.73 383.25 45.78Q383.97 46.82 383.97 48.5Q383.97 50.03 383.17 51.1Q382.37 52.16 381.01 52.79Q379.64 53.43 378 53.73Q376.36 54.03 374.68 54.03Q372.4 54.03 370.48 53.54Q368.55 53.06 367.38 52.05Q366.2 51.04 366.2 49.47Q366.2 48.24 366.86 47.36Q367.51 46.49 368.44 45.96Q366.54 44.77 366.54 42.57Q366.54 41.3 367.19 40.4Q367.85 39.5 368.85 39.09Q366.65 37.08 366.65 34.02Q366.65 32.04 367.64 30.41Q368.63 28.79 370.48 27.82Q372.33 26.85 374.86 26.85Q376.43 26.85 377.72 27.24Q379.01 27.63 380.02 28.3Q380.2 28.42 380.33 28.43Q380.46 28.45 380.54 28.45Q380.84 28.45 381.02 28.25Q381.21 28.04 381.21 27.48V27.37Q381.21 26.89 381.62 26.81ZM374.86 29.09Q373.45 29.09 372.64 29.87Q371.84 30.66 371.52 31.79Q371.21 32.93 371.21 34.02Q371.21 35.1 371.52 36.24Q371.84 37.38 372.64 38.16Q373.45 38.94 374.86 38.94Q376.28 38.94 377.01 38.16Q377.74 37.38 378 36.24Q378.26 35.1 378.26 34.02Q378.26 32.93 378 31.79Q377.74 30.66 377.01 29.87Q376.28 29.09 374.86 29.09ZM374.71 51.45Q377.48 51.45 378.95 50.93Q380.43 50.41 380.43 49.55Q380.43 48.35 378.86 47.96Q377.29 47.57 374.45 47.42Q372.44 47.31 370.98 46.97Q369.94 47.68 369.94 48.95Q369.94 49.51 370.35 50.09Q370.76 50.67 371.8 51.06Q372.85 51.45 374.71 51.45Z" fill="#ECE6D8"/></svg>
