M48
; DRILL file KiCad 10.0.0 date 2026-10-04T03:08:52
; FORMAT={-:-/ absolute / metric / decimal}
; #@! TF.CreationDate,2026-10-04T03:08:52+02:00
; #@! TF.GenerationSoftware,Kicad,Pcbnew,10.0.0
; #@! TF.FileFunction,Plated,1,2,PTH
FMAT,2
METRIC
; #@! TA.AperFunction,Plated,PTH,ViaDrill
T1C0.300
; #@! TA.AperFunction,Plated,PTH,ViaDrill
T2C0.400
; #@! TA.AperFunction,Plated,PTH,ComponentDrill
T3C0.800
; #@! TA.AperFunction,Plated,PTH,ComponentDrill
T4C0.800
; #@! TA.AperFunction,Plated,PTH,ComponentDrill
T5C1.100
; #@! TA.AperFunction,Plated,PTH,ComponentDrill
T6C1.100
; #@! TA.AperFunction,Plated,PTH,ComponentDrill
T7C1.300
; #@! TA.AperFunction,Plated,PTH,ComponentDrill
T8C1.600
%
G90
G05
T1
X94.0Y-132.5
X95.0Y-127.0
X96.0Y-117.5
X104.5Y-115.0
X105.5Y-116.0
X123.5Y-114.0
X127.0Y-150.5
X128.331Y-140.504
X135.5Y-110.5
X135.5Y-126.5
X136.5Y-118.0
X137.5Y-117.5
X137.5Y-122.0
X138.0Y-131.0
X138.162Y-128.101
X139.5Y-130.5
X140.0Y-123.5
X140.5Y-117.934
X140.5Y-120.5
X140.5Y-122.5
X140.5Y-124.5
X140.5Y-130.012
X142.0Y-113.0
X142.5Y-135.5
X145.5Y-107.5
X145.6Y-125.8
X146.5Y-126.4
X146.555Y-109.349
X147.0Y-113.0
X147.0Y-119.0
X147.175Y-113.793
X147.5Y-122.5
X147.5Y-124.5
X147.5Y-127.0
X148.5Y-110.0
X148.7Y-133.5
T2
X85.946Y-134.262
X90.0Y-119.5
X93.0Y-133.0
X96.5Y-128.5
X97.0Y-126.5
X102.0Y-116.5
X105.958Y-125.042
X108.5Y-123.0
X108.5Y-126.382
X109.0Y-128.0
X110.5Y-125.0
X113.5Y-120.5
X113.5Y-125.0
X117.0Y-128.5
X121.5Y-128.0
X122.0Y-141.0
X132.5Y-124.5
X135.0Y-131.5
X137.0Y-123.5
X137.5Y-119.0
X137.5Y-121.0
X137.5Y-126.5
X138.0Y-108.0
X141.5Y-118.5
X142.5Y-131.0
X144.0Y-115.0
X145.0Y-115.0
T3
X84.0Y-108.7
X89.0Y-110.3
T4
X88.13Y-102.5
X90.67Y-102.5
T5
X101.5Y-131.082
X108.5Y-131.082
X120.0Y-131.082
X120.0Y-135.782
T6
X129.5Y-116.5
X129.5Y-121.7
T7
X101.595Y-141.2
X104.135Y-148.82
X109.215Y-141.2
X119.375Y-141.2
X119.375Y-148.82
T8
X84.0Y-105.0
X84.0Y-118.5
X85.0Y-148.5
X93.0Y-148.5
X132.5Y-149.0
X139.0Y-149.0
M30
