%TF.GenerationSoftware,KiCad,Pcbnew,10.0.0*%
%TF.CreationDate,2026-10-04T03:06:58+02:00*%
%TF.ProjectId,reckoner,7265636b-6f6e-4657-922e-6b696361645f,rev?*%
%TF.SameCoordinates,Original*%
%TF.FileFunction,Soldermask,Top*%
%TF.FilePolarity,Negative*%
%FSLAX46Y46*%
G04 Gerber Fmt 4.6, Leading zero omitted, Abs format (unit mm)*
G04 Created by KiCad (PCBNEW 10.0.0) date 2026-10-04 03:06:58*
%MOMM*%
%LPD*%
G01*
G04 APERTURE LIST*
G04 Aperture macros list*
%AMRoundRect*
0 Rectangle with rounded corners*
0 $1 Rounding radius*
0 $2 $3 $4 $5 $6 $7 $8 $9 X,Y pos of 4 corners*
0 Add a 4 corners polygon primitive as box body*
4,1,4,$2,$3,$4,$5,$6,$7,$8,$9,$2,$3,0*
0 Add four circle primitives for the rounded corners*
1,1,$1+$1,$2,$3*
1,1,$1+$1,$4,$5*
1,1,$1+$1,$6,$7*
1,1,$1+$1,$8,$9*
0 Add four rect primitives between the rounded corners*
20,1,$1+$1,$2,$3,$4,$5,0*
20,1,$1+$1,$4,$5,$6,$7,0*
20,1,$1+$1,$6,$7,$8,$9,0*
20,1,$1+$1,$8,$9,$2,$3,0*%
%AMOutline5P*
0 Free polygon, 5 corners , with rotation*
0 The origin of the aperture is its center*
0 number of corners: always 5*
0 $1 to $10 corner X, Y*
0 $11 Rotation angle, in degrees counterclockwise*
0 create outline with 5 corners*
4,1,5,$1,$2,$3,$4,$5,$6,$7,$8,$9,$10,$1,$2,$11*%
%AMOutline6P*
0 Free polygon, 6 corners , with rotation*
0 The origin of the aperture is its center*
0 number of corners: always 6*
0 $1 to $12 corner X, Y*
0 $13 Rotation angle, in degrees counterclockwise*
0 create outline with 6 corners*
4,1,6,$1,$2,$3,$4,$5,$6,$7,$8,$9,$10,$11,$12,$1,$2,$13*%
%AMOutline7P*
0 Free polygon, 7 corners , with rotation*
0 The origin of the aperture is its center*
0 number of corners: always 7*
0 $1 to $14 corner X, Y*
0 $15 Rotation angle, in degrees counterclockwise*
0 create outline with 7 corners*
4,1,7,$1,$2,$3,$4,$5,$6,$7,$8,$9,$10,$11,$12,$13,$14,$1,$2,$15*%
%AMOutline8P*
0 Free polygon, 8 corners , with rotation*
0 The origin of the aperture is its center*
0 number of corners: always 8*
0 $1 to $16 corner X, Y*
0 $17 Rotation angle, in degrees counterclockwise*
0 create outline with 8 corners*
4,1,8,$1,$2,$3,$4,$5,$6,$7,$8,$9,$10,$11,$12,$13,$14,$15,$16,$1,$2,$17*%
G04 Aperture macros list end*
%ADD10R,1.500000X4.000000*%
%ADD11C,1.000000*%
%ADD12C,1.500000*%
%ADD13RoundRect,0.250000X-1.050000X-1.050000X1.050000X-1.050000X1.050000X1.050000X-1.050000X1.050000X0*%
%ADD14RoundRect,0.250000X0.650000X-0.325000X0.650000X0.325000X-0.650000X0.325000X-0.650000X-0.325000X0*%
%ADD15R,0.600000X2.000000*%
%ADD16RoundRect,0.140000X0.140000X0.170000X-0.140000X0.170000X-0.140000X-0.170000X0.140000X-0.170000X0*%
%ADD17RoundRect,0.140000X-0.140000X-0.170000X0.140000X-0.170000X0.140000X0.170000X-0.140000X0.170000X0*%
%ADD18RoundRect,0.250000X-0.475000X0.250000X-0.475000X-0.250000X0.475000X-0.250000X0.475000X0.250000X0*%
%ADD19RoundRect,0.250000X-0.312500X-0.625000X0.312500X-0.625000X0.312500X0.625000X-0.312500X0.625000X0*%
%ADD20RoundRect,0.200000X-0.275000X0.200000X-0.275000X-0.200000X0.275000X-0.200000X0.275000X0.200000X0*%
%ADD21RoundRect,0.135000X-0.135000X-0.185000X0.135000X-0.185000X0.135000X0.185000X-0.135000X0.185000X0*%
%ADD22RoundRect,0.225000X0.375000X-0.225000X0.375000X0.225000X-0.375000X0.225000X-0.375000X-0.225000X0*%
%ADD23RoundRect,0.250000X-1.000000X1.500000X-1.000000X-1.500000X1.000000X-1.500000X1.000000X1.500000X0*%
%ADD24RoundRect,0.225000X-0.375000X0.225000X-0.375000X-0.225000X0.375000X-0.225000X0.375000X0.225000X0*%
%ADD25RoundRect,0.135000X-0.185000X0.135000X-0.185000X-0.135000X0.185000X-0.135000X0.185000X0.135000X0*%
%ADD26RoundRect,0.140000X0.170000X-0.140000X0.170000X0.140000X-0.170000X0.140000X-0.170000X-0.140000X0*%
%ADD27RoundRect,0.135000X0.135000X0.185000X-0.135000X0.185000X-0.135000X-0.185000X0.135000X-0.185000X0*%
%ADD28RoundRect,0.200000X-0.200000X-0.275000X0.200000X-0.275000X0.200000X0.275000X-0.200000X0.275000X0*%
%ADD29RoundRect,0.150000X-0.587500X-0.150000X0.587500X-0.150000X0.587500X0.150000X-0.587500X0.150000X0*%
%ADD30RoundRect,0.140000X-0.170000X0.140000X-0.170000X-0.140000X0.170000X-0.140000X0.170000X0.140000X0*%
%ADD31RoundRect,0.250000X-0.625000X0.312500X-0.625000X-0.312500X0.625000X-0.312500X0.625000X0.312500X0*%
%ADD32RoundRect,0.225000X-0.250000X0.225000X-0.250000X-0.225000X0.250000X-0.225000X0.250000X0.225000X0*%
%ADD33RoundRect,0.250000X0.475000X-0.250000X0.475000X0.250000X-0.475000X0.250000X-0.475000X-0.250000X0*%
%ADD34RoundRect,0.150000X-0.825000X-0.150000X0.825000X-0.150000X0.825000X0.150000X-0.825000X0.150000X0*%
%ADD35R,0.400000X0.800000*%
%ADD36R,0.800000X0.400000*%
%ADD37Outline5P,-0.725000X0.130500X-0.130500X0.725000X0.725000X0.725000X0.725000X-0.725000X-0.725000X-0.725000X270.000000*%
%ADD38R,1.450000X1.450000*%
%ADD39R,0.700000X0.700000*%
%ADD40RoundRect,0.150000X-0.512500X-0.150000X0.512500X-0.150000X0.512500X0.150000X-0.512500X0.150000X0*%
%ADD41R,2.300000X2.300000*%
%ADD42C,2.300000*%
%ADD43C,1.600000*%
%ADD44RoundRect,0.250000X0.625000X-0.312500X0.625000X0.312500X-0.625000X0.312500X-0.625000X-0.312500X0*%
%ADD45RoundRect,0.250000X-0.650000X1.000000X-0.650000X-1.000000X0.650000X-1.000000X0.650000X1.000000X0*%
%ADD46RoundRect,0.250000X1.500000X1.000000X-1.500000X1.000000X-1.500000X-1.000000X1.500000X-1.000000X0*%
%ADD47RoundRect,0.250000X-1.000000X-0.650000X1.000000X-0.650000X1.000000X0.650000X-1.000000X0.650000X0*%
%ADD48RoundRect,0.150000X-0.150000X0.587500X-0.150000X-0.587500X0.150000X-0.587500X0.150000X0.587500X0*%
%ADD49R,3.250000X3.430000*%
%ADD50RoundRect,0.250000X0.312500X0.625000X-0.312500X0.625000X-0.312500X-0.625000X0.312500X-0.625000X0*%
%ADD51RoundRect,0.250000X1.000000X0.650000X-1.000000X0.650000X-1.000000X-0.650000X1.000000X-0.650000X0*%
%ADD52RoundRect,0.150000X0.587500X0.150000X-0.587500X0.150000X-0.587500X-0.150000X0.587500X-0.150000X0*%
%ADD53RoundRect,0.250000X-0.650000X0.325000X-0.650000X-0.325000X0.650000X-0.325000X0.650000X0.325000X0*%
%ADD54RoundRect,0.250000X-0.550000X1.500000X-0.550000X-1.500000X0.550000X-1.500000X0.550000X1.500000X0*%
%ADD55O,1.800000X1.800000*%
%ADD56R,1.800000X1.800000*%
%ADD57RoundRect,0.218750X-0.256250X0.218750X-0.256250X-0.218750X0.256250X-0.218750X0.256250X0.218750X0*%
G04 APERTURE END LIST*
D10*
%TO.C,L1*%
X108000000Y-105500000D03*
X111600000Y-105500000D03*
%TD*%
D11*
%TO.C,TP5*%
X139500000Y-107500000D03*
%TD*%
D12*
%TO.C,RV1*%
X84000000Y-108700000D03*
X89000000Y-110300000D03*
%TD*%
D13*
%TO.C,J2*%
X84000000Y-105000000D03*
%TD*%
D14*
%TO.C,C5*%
X122500000Y-119975000D03*
X122500000Y-117025000D03*
%TD*%
D15*
%TO.C,U1*%
X130810000Y-103860000D03*
X129540000Y-103860000D03*
X127000000Y-103860000D03*
X127000000Y-108760000D03*
X128270000Y-108760000D03*
X129540000Y-108760000D03*
X130810000Y-108760000D03*
%TD*%
D16*
%TO.C,C15*%
X99480000Y-126980000D03*
X98520000Y-126980000D03*
%TD*%
D11*
%TO.C,TP12*%
X146500000Y-149550000D03*
%TD*%
D17*
%TO.C,C19*%
X92040000Y-135000000D03*
X93000000Y-135000000D03*
%TD*%
D18*
%TO.C,C4*%
X137000000Y-101050000D03*
X137000000Y-102950000D03*
%TD*%
D19*
%TO.C,R14*%
X89537500Y-125000000D03*
X92462500Y-125000000D03*
%TD*%
D20*
%TO.C,R7*%
X145500000Y-130387500D03*
X145500000Y-132037500D03*
%TD*%
D21*
%TO.C,R24*%
X92000000Y-134000000D03*
X93020000Y-134000000D03*
%TD*%
%TO.C,R3*%
X130490000Y-102000000D03*
X131510000Y-102000000D03*
%TD*%
D22*
%TO.C,D5*%
X123500000Y-136650000D03*
X123500000Y-133350000D03*
%TD*%
D23*
%TO.C,C2*%
X121500000Y-103250000D03*
X121500000Y-109750000D03*
%TD*%
D24*
%TO.C,D6*%
X123500000Y-142350000D03*
X123500000Y-145650000D03*
%TD*%
D25*
%TO.C,R8*%
X125000000Y-130990000D03*
X125000000Y-132010000D03*
%TD*%
D21*
%TO.C,R27*%
X94000000Y-130000000D03*
X95020000Y-130000000D03*
%TD*%
%TO.C,R20*%
X127490000Y-136500000D03*
X128510000Y-136500000D03*
%TD*%
D13*
%TO.C,J3*%
X132500000Y-149000000D03*
%TD*%
D26*
%TO.C,C10*%
X146400000Y-114892500D03*
X146400000Y-113932500D03*
%TD*%
D21*
%TO.C,R26*%
X141480000Y-132500000D03*
X142500000Y-132500000D03*
%TD*%
D25*
%TO.C,R15*%
X94000000Y-124500000D03*
X94000000Y-125520000D03*
%TD*%
D11*
%TO.C,TP1*%
X147500000Y-100500000D03*
%TD*%
D27*
%TO.C,R21*%
X143510000Y-137000000D03*
X142490000Y-137000000D03*
%TD*%
D19*
%TO.C,R13*%
X84537500Y-125000000D03*
X87462500Y-125000000D03*
%TD*%
D28*
%TO.C,R4*%
X115350000Y-124000000D03*
X117000000Y-124000000D03*
%TD*%
D29*
%TO.C,D9*%
X88062500Y-134050000D03*
X88062500Y-135950000D03*
X89937500Y-135000000D03*
%TD*%
D30*
%TO.C,C14*%
X95500000Y-124520000D03*
X95500000Y-125480000D03*
%TD*%
D21*
%TO.C,R25*%
X132990000Y-131500000D03*
X134010000Y-131500000D03*
%TD*%
D31*
%TO.C,R22*%
X83000000Y-127037500D03*
X83000000Y-129962500D03*
%TD*%
D32*
%TO.C,C3*%
X132500000Y-105725000D03*
X132500000Y-107275000D03*
%TD*%
D26*
%TO.C,C13*%
X95000000Y-122480000D03*
X95000000Y-121520000D03*
%TD*%
D13*
%TO.C,J6*%
X93000000Y-148500000D03*
%TD*%
D33*
%TO.C,C9*%
X148400000Y-113862500D03*
X148400000Y-111962500D03*
%TD*%
D19*
%TO.C,R23*%
X86575000Y-130000000D03*
X89500000Y-130000000D03*
%TD*%
D34*
%TO.C,U4*%
X97550000Y-121500000D03*
X97550000Y-122770000D03*
X97550000Y-124040000D03*
X97550000Y-125310000D03*
X102500000Y-125310000D03*
X102500000Y-124040000D03*
X102500000Y-122770000D03*
X102500000Y-121500000D03*
%TD*%
D27*
%TO.C,R2*%
X133510000Y-100500000D03*
X132490000Y-100500000D03*
%TD*%
D35*
%TO.C,U3*%
X148000000Y-116512500D03*
X147200000Y-116512500D03*
X146400000Y-116512500D03*
X145600000Y-116512500D03*
X144800000Y-116512500D03*
X144000000Y-116512500D03*
X143200000Y-116512500D03*
X142400000Y-116512500D03*
X141600000Y-116512500D03*
X140800000Y-116512500D03*
X140000000Y-116512500D03*
D36*
X139100000Y-117612500D03*
X139100000Y-118412500D03*
X139100000Y-119212500D03*
X139100000Y-120012500D03*
X139100000Y-120812500D03*
X139100000Y-121612500D03*
X139100000Y-122412500D03*
X139100000Y-123212500D03*
X139100000Y-124012500D03*
X139100000Y-124812500D03*
X139100000Y-125612500D03*
X139100000Y-126412500D03*
X139100000Y-127212500D03*
D35*
X140000000Y-128312500D03*
X140800000Y-128312500D03*
X141600000Y-128312500D03*
X142400000Y-128312500D03*
X143200000Y-128312500D03*
X144000000Y-128312500D03*
X144800000Y-128312500D03*
X145600000Y-128312500D03*
X146400000Y-128312500D03*
X147200000Y-128312500D03*
X148000000Y-128312500D03*
D36*
X148900000Y-127212500D03*
X148900000Y-126412500D03*
X148900000Y-125612500D03*
X148900000Y-124812500D03*
X148900000Y-124012500D03*
X148900000Y-123212500D03*
X148900000Y-122412500D03*
X148900000Y-121612500D03*
X148900000Y-120812500D03*
X148900000Y-120012500D03*
X148900000Y-119212500D03*
X148900000Y-118412500D03*
X148900000Y-117612500D03*
D37*
X145975000Y-120437500D03*
D38*
X144000000Y-120437500D03*
X142025000Y-120437500D03*
X145975000Y-122412500D03*
X144000000Y-122412500D03*
X142025000Y-122412500D03*
X145975000Y-124387500D03*
X144000000Y-124387500D03*
X142025000Y-124387500D03*
D39*
X148950000Y-128362500D03*
X139050000Y-128362500D03*
X139050000Y-116462500D03*
X148950000Y-116462500D03*
%TD*%
D40*
%TO.C,U2*%
X142862500Y-108962500D03*
X142862500Y-109912500D03*
X142862500Y-110862500D03*
X145137500Y-110862500D03*
X145137500Y-108962500D03*
%TD*%
D13*
%TO.C,J4*%
X139000000Y-149000000D03*
%TD*%
D41*
%TO.C,K2*%
X119375000Y-141200000D03*
D42*
X109215000Y-141200000D03*
X101595000Y-141200000D03*
X104135000Y-148820000D03*
X119375000Y-148820000D03*
%TD*%
D43*
%TO.C,R1*%
X88130000Y-102500000D03*
X90670000Y-102500000D03*
%TD*%
D44*
%TO.C,R19*%
X139000000Y-139925000D03*
X139000000Y-137000000D03*
%TD*%
D45*
%TO.C,D3*%
X142500000Y-102000000D03*
X142500000Y-106000000D03*
%TD*%
D30*
%TO.C,C8*%
X141000000Y-109520000D03*
X141000000Y-110480000D03*
%TD*%
D13*
%TO.C,J5*%
X85000000Y-148500000D03*
%TD*%
D46*
%TO.C,C7*%
X114250000Y-118000000D03*
X107750000Y-118000000D03*
%TD*%
D47*
%TO.C,D2*%
X131000000Y-112000000D03*
X135000000Y-112000000D03*
%TD*%
D16*
%TO.C,C18*%
X136980000Y-136000000D03*
X136020000Y-136000000D03*
%TD*%
D43*
%TO.C,L2*%
X129500000Y-116500000D03*
X129500000Y-121700000D03*
%TD*%
D25*
%TO.C,R12*%
X93500000Y-121490000D03*
X93500000Y-122510000D03*
%TD*%
D48*
%TO.C,D8*%
X139950000Y-133125000D03*
X138050000Y-133125000D03*
X139000000Y-135000000D03*
%TD*%
D49*
%TO.C,F1*%
X86800000Y-114500000D03*
X96200000Y-114500000D03*
%TD*%
D25*
%TO.C,R5*%
X142900000Y-113702500D03*
X142900000Y-114722500D03*
%TD*%
D21*
%TO.C,R9*%
X126990000Y-151500000D03*
X128010000Y-151500000D03*
%TD*%
D11*
%TO.C,TP13*%
X146500000Y-145000000D03*
%TD*%
D21*
%TO.C,R6*%
X134990000Y-125500000D03*
X136010000Y-125500000D03*
%TD*%
D44*
%TO.C,R17*%
X132500000Y-139962500D03*
X132500000Y-137037500D03*
%TD*%
D50*
%TO.C,R10*%
X104462500Y-118500000D03*
X101537500Y-118500000D03*
%TD*%
D27*
%TO.C,R11*%
X100020000Y-118500000D03*
X99000000Y-118500000D03*
%TD*%
D26*
%TO.C,C12*%
X97500000Y-118980000D03*
X97500000Y-118020000D03*
%TD*%
D44*
%TO.C,R18*%
X139000000Y-144962500D03*
X139000000Y-142037500D03*
%TD*%
D48*
%TO.C,D7*%
X133500000Y-133125000D03*
X131600000Y-133125000D03*
X132550000Y-135000000D03*
%TD*%
D51*
%TO.C,D1*%
X97000000Y-106500000D03*
X93000000Y-106500000D03*
%TD*%
D17*
%TO.C,C16*%
X104540000Y-121500000D03*
X105500000Y-121500000D03*
%TD*%
D13*
%TO.C,J1*%
X84000000Y-118500000D03*
%TD*%
D52*
%TO.C,Q2*%
X125000000Y-151500000D03*
X125000000Y-149600000D03*
X123125000Y-150550000D03*
%TD*%
D53*
%TO.C,C6*%
X122500000Y-122025000D03*
X122500000Y-124975000D03*
%TD*%
D16*
%TO.C,C17*%
X128480000Y-137500000D03*
X127520000Y-137500000D03*
%TD*%
D54*
%TO.C,C1*%
X102500000Y-102700000D03*
X102500000Y-108300000D03*
%TD*%
D26*
%TO.C,C11*%
X141400000Y-114692500D03*
X141400000Y-113732500D03*
%TD*%
D44*
%TO.C,R16*%
X132500000Y-144962500D03*
X132500000Y-142037500D03*
%TD*%
D52*
%TO.C,Q1*%
X124375000Y-129950000D03*
X124375000Y-128050000D03*
X122500000Y-129000000D03*
%TD*%
D55*
%TO.C,K1*%
X108500000Y-131082500D03*
X101500000Y-131082500D03*
D56*
X120000000Y-135782500D03*
D55*
X120000000Y-131082500D03*
%TD*%
D57*
%TO.C,D4*%
X147500000Y-130425000D03*
X147500000Y-132000000D03*
%TD*%
D11*
%TO.C,TP2*%
X148000000Y-107500000D03*
%TD*%
M02*
