#VRML V2.0 utf8
# 3D model generated by easyeda2kicad.py (https://github.com/uPesy/easyeda2kicad.py)

Shape{
    appearance Appearance {
        material  Material 	{
            diffuseColor 0.20784313725490197 0.20784313725490197 0.20784313725490197
            specularColor 0.01568627450980392 0.01568627450980392 0.01568627450980392
            ambientIntensity 0.298
            transparency 0.0
            shininess 0.5
        }
    }
    geometry IndexedFaceSet {
        ccw TRUE
        solid FALSE
        coord DEF co Coordinate {
            point [
                -0.1749 1.6641 0.0, -0.0408 1.6711 0.0, -0.0408 0.0857 0.0, 0.1032 -0.1135 0.0, 0.1032 0.0857 0.0, 0.1224 -0.0805 0.0, 0.1224 -0.1021 0.0, 0.1434 -0.1107 0.0, 0.1633 -0.1135 0.0, 0.1514 0.0857 0.0, 0.1452 0.0853 0.0, 0.1224 0.0791 0.0, 0.1224 0.0527 0.0, 0.1446 0.0622 0.0, 0.126 -0.0825 0.0, 0.1685 0.0653 0.0, 0.1879 0.0632 0.0, 0.2026 0.0578 0.0, 0.2163 0.0487 0.0, 0.2282 0.0356 0.0, 0.2425 -0.016 0.0, 0.2405 -0.0373 0.0, 0.2351 -0.0542 0.0, 0.1913 -0.0911 0.0, 0.173 -0.0931 0.0, 0.2057 -0.0858 0.0, 0.2177 -0.0776 0.0, 0.227 -0.0679 0.0, 0.1468 -0.0902 0.0, 0.2363 0.0204 0.0, 0.2415 -0.0007 0.0, 0.1835 0.0857 0.0, 0.1688 0.0869 0.0, 0.1749 1.6641 0.0, 0.1032 1.6678 0.0, 0.0 1.6732 0.0, 0.2358 -0.0955 0.0, 0.2506 -0.08 0.0, 0.2773 -0.1135 0.0, 0.2199 -0.1056 0.0, 0.2469 0.0511 0.0, 0.2292 0.0682 0.0, 0.2773 0.0857 0.0, 0.2105 0.0789 0.0, 0.2689 -0.0176 0.0, 0.266 0.0104 0.0, 0.2585 0.0327 0.0, 0.2773 1.6478 0.0, 0.1885 0.0853 0.0, 0.261 -0.0612 0.0, 0.267 -0.0404 0.0, 0.1712 -0.1146 0.0, 0.1032 -0.8957 0.0, 0.1766 -0.1147 0.0, 0.2773 -0.8957 0.0, 0.1882 -0.1135 0.0, 0.2009 -0.1122 0.0, -1.6687 0.0857 0.0, -1.1042 0.0857 0.0, -1.1071 0.0835 0.0, -1.1259 -0.0591 0.0, -1.1071 -0.0835 0.0, -1.6673 -0.1135 0.0, -1.0827 -0.1023 0.0, -1.0556 -0.1135 0.0, -1.1259 0.0591 0.0, -1.1377 0.0306 0.0, -1.6732 -0.0 0.0, -1.1417 0.0 0.0, -1.1377 -0.0306 0.0, -1.0236 -0.1181 0.0, -0.9931 -0.1141 0.0, -0.658 -0.8957 0.0, -1.0542 -0.1141 0.0, -1.5286 -0.6806 0.0, -1.5913 -0.5171 0.0, -1.6367 -0.3479 0.0, -1.6641 -0.1749 0.0, -0.6806 -1.5286 0.0, -0.8366 -1.4491 0.0, -0.9835 -1.3537 0.0, -1.1196 -1.2435 0.0, -1.2435 -1.1196 0.0, -1.3537 -0.9835 0.0, -1.4107 -0.8957 0.0, -1.4491 -0.8366 0.0, -0.2257 -1.656 0.0, -0.3479 -1.6367 0.0, -0.2257 -0.8957 0.0, -0.5171 -1.5913 0.0, -0.658 -1.5372 0.0, -0.1749 -1.6641 0.0, -0.0408 -0.8957 0.0, -0.0408 -1.6711 0.0, 0.0 -1.6732 0.0, 0.1032 -1.6678 0.0, 0.1749 -1.6641 0.0, 0.646 -1.5418 0.0, 0.5171 -1.5913 0.0, 0.3479 -1.6367 0.0, 0.2773 -1.6478 0.0, 0.646 -0.8957 0.0, 1.4075 -0.8957 0.0, 1.4075 -0.9006 0.0, 1.3537 -0.9835 0.0, 1.2435 -1.1196 0.0, 1.1196 -1.2435 0.0, 0.9835 -1.3537 0.0, 0.8366 -1.4491 0.0, 0.6806 -1.5286 0.0, 1.6367 -0.3479 0.0, 1.5913 -0.5171 0.0, 1.4075 -0.1135 0.0, 1.6641 -0.1749 0.0, 1.5286 -0.6806 0.0, 1.4491 -0.8366 0.0, 1.4107 -0.8957 0.0, 1.6641 0.1749 0.0, 1.6687 0.0857 0.0, 1.4075 0.0857 0.0, 1.6732 -0.0 0.0, 1.6673 -0.1135 0.0, 1.5286 0.6806 0.0, 1.4491 0.8366 0.0, 1.4075 0.9006 0.0, 1.5913 0.5171 0.0, 1.6367 0.3479 0.0, 1.1042 0.0857 0.0, 1.0827 0.1023 0.0, 1.3537 0.9835 0.0, 1.0542 0.1141 0.0, 1.2435 1.1196 0.0, 1.0236 0.1181 0.0, 1.1196 1.2435 0.0, 0.9835 1.3537 0.0, 0.8366 1.4491 0.0, 0.9931 0.1141 0.0, 0.6806 1.5286 0.0, 0.646 1.5418 0.0, 0.646 0.0857 0.0, 0.5171 1.5913 0.0, 0.3479 1.6367 0.0, -0.2257 1.656 0.0, -0.2257 0.0857 0.0, -0.3479 1.6367 0.0, -0.5171 1.5913 0.0, -0.6806 1.5286 0.0, -0.658 1.5372 0.0, -0.9931 0.1141 0.0, -0.658 0.0857 0.0, -0.943 0.0857 0.0, -0.9646 0.1023 0.0, -1.0827 0.1023 0.0, -1.6367 0.3479 0.0, -1.5913 0.5171 0.0, -1.6641 0.1749 0.0, -1.2435 1.1196 0.0, -1.0236 0.1181 0.0, -1.3537 0.9835 0.0, -1.0542 0.1141 0.0, -1.4491 0.8366 0.0, -1.5286 0.6806 0.0, -1.1196 1.2435 0.0, -0.9835 1.3537 0.0, -0.8366 1.4491 0.0, -0.9917 -0.1135 0.0, -0.9646 -0.1023 0.0, -0.658 -0.1135 0.0, -0.9401 -0.0835 0.0, -0.9213 -0.0591 0.0, -0.9095 -0.0306 0.0, -0.9055 0.0 0.0, -0.9095 0.0306 0.0, -0.9213 0.0591 0.0, -0.9401 0.0835 0.0, 0.9401 0.0835 0.0, 0.9213 0.0591 0.0, 0.646 -0.1135 0.0, 0.9213 -0.0591 0.0, 0.9401 -0.0835 0.0, 0.9646 0.1023 0.0, 0.943 0.0857 0.0, 0.9095 0.0306 0.0, 0.9055 0.0 0.0, 0.9095 -0.0306 0.0, 1.0827 -0.1023 0.0, 1.1071 -0.0835 0.0, 1.1377 0.0306 0.0, 1.1259 0.0591 0.0, 1.1071 0.0835 0.0, 1.1259 -0.0591 0.0, 1.1377 -0.0306 0.0, 1.1417 0.0 0.0, 0.9646 -0.1023 0.0, 0.9917 -0.1135 0.0, 0.9931 -0.1141 0.0, 1.0236 -0.1181 0.0, 1.0542 -0.1141 0.0, 1.0556 -0.1135 0.0, -0.3817 -0.1123 0.0, -0.2257 -0.1135 0.0, -0.4105 -0.1123 0.0, -0.3337 0.0845 0.0, -0.3618 -0.0571 0.0, -0.2805 -0.0571 0.0, -0.2617 -0.1123 0.0, -0.2329 -0.1123 0.0, -0.3073 0.0845 0.0, -0.2086 -0.0584 0.0, -0.1973 -0.076 0.0, -0.1811 -0.0915 0.0, -0.1606 -0.1034 0.0, -0.1156 0.0845 0.0, -0.144 0.0815 0.0, -0.167 0.0734 0.0, -0.1885 0.059 0.0, -0.1887 0.0589 0.0, -0.2026 0.0434 0.0, -0.2117 0.0265 0.0, -0.1379 -0.1102 0.0, -0.1135 -0.1123 0.0, -0.0408 -0.1135 0.0, -0.06 -0.1123 0.0, -0.06 0.0845 0.0, -0.217 0.0071 0.0, -0.2185 -0.0114 0.0, -0.2157 -0.0378 0.0, -0.0168 0.0845 0.0, -0.0168 0.0629 0.0, -0.0216 -0.0907 0.0, -0.0216 -0.1123 0.0, 0.084 -0.1123 0.0, 0.084 0.0845 0.0, 0.0576 -0.0235 0.0, 0.0576 -0.0907 0.0, -0.012 -0.0235 0.0, -0.012 -0.0019 0.0, 0.0576 -0.0019 0.0, 0.0576 0.0629 0.0, 0.2857 -0.0907 0.0, 0.2857 -0.1123 0.0, 0.3601 -0.0907 0.0, 0.3601 0.0845 0.0, 0.3865 0.0845 0.0, 0.3865 -0.1123 0.0, 1.5945 -0.0 4.7244, 1.5851 0.1724 4.7244, 0.0 0.0 4.7244, 1.511 -0.5091 4.7244, 1.5572 -0.3428 4.7244, 1.5851 -0.1724 4.7244, 1.2694 -0.9649 4.7244, 1.3662 -0.822 4.7244, 1.4471 -0.6695 4.7244, 0.8948 -1.3197 4.7244, 1.0322 -1.2153 4.7244, 1.1576 -1.0965 4.7244, 0.4266 -1.5364 4.7244, 0.5902 -1.4812 4.7244, 0.7469 -1.4087 4.7244, -0.0863 -1.5921 4.7244, 0.0863 -1.5921 4.7244, 0.258 -1.5735 4.7244, -0.5902 -1.4812 4.7244, -0.4266 -1.5364 4.7244, -0.258 -1.5735 4.7244, -1.0322 -1.2153 4.7244, -0.8948 -1.3197 4.7244, -0.7469 -1.4087 4.7244, -1.3662 -0.822 4.7244, -1.2694 -0.9649 4.7244, -1.1576 -1.0965 4.7244, -1.5572 -0.3428 4.7244, -1.511 -0.5091 4.7244, -1.4471 -0.6695 4.7244, -1.5851 0.1724 4.7244, -1.5945 -0.0 4.7244, -1.5851 -0.1724 4.7244, -1.4471 0.6695 4.7244, -1.511 0.5091 4.7244, -1.5572 0.3428 4.7244, -1.1576 1.0965 4.7244, -1.2694 0.9649 4.7244, -1.3662 0.822 4.7244, -0.7469 1.4087 4.7244, -0.8948 1.3197 4.7244, -1.0322 1.2153 4.7244, -0.258 1.5735 4.7244, -0.4266 1.5364 4.7244, -0.5902 1.4812 4.7244, 0.258 1.5735 4.7244, 0.0863 1.5921 4.7244, -0.0863 1.5921 4.7244, 0.7469 1.4087 4.7244, 0.5902 1.4812 4.7244, 0.4266 1.5364 4.7244, 1.1576 1.0965 4.7244, 1.0322 1.2153 4.7244, 0.8948 1.3197 4.7244, 1.4471 0.6695 4.7244, 1.3662 0.822 4.7244, 1.2694 0.9649 4.7244, 1.5572 0.3428 4.7244, 1.511 0.5091 4.7244, -1.2869 -1.2385 3.937, -1.3005 -1.2319 4.5276, -1.382 -1.1397 3.937, -1.4261 -1.0841 4.5276, -1.4609 -1.0276 3.937, -1.4632 -1.0293 4.5276, -1.5398 -0.9154 3.937, -1.5349 -0.9235 4.5276, -1.6006 -0.7925 3.937, -0.6037 -1.681 3.937, -0.663 -1.6641 4.5276, -0.7328 -1.6346 3.937, -0.8391 -1.5827 4.5276, -0.8532 -1.5691 3.937, -0.8553 -1.5729 4.5276, -0.9737 -1.5036 3.937, -1.0053 -1.4827 4.5276, -1.0828 -1.4205 3.937, -1.0844 -1.4225 4.5276, -1.1918 -1.3373 3.937, -1.1597 -1.3653 4.5276, -1.2902 -1.2417 4.5276, -0.0684 -1.7848 3.937, -0.097 -1.7887 4.5276, -0.2054 -1.7795 3.937, -0.2898 -1.7677 4.5276, -0.3401 -1.7534 3.937, -0.3406 -1.7566 4.5276, -0.4747 -1.7273 3.937, -0.4792 -1.726 4.5276, -0.6048 -1.6837 4.5276, 0.6055 -1.6859 3.937, 0.4792 -1.726 4.5276, 0.4733 -1.7222 3.937, 0.4746 -1.7271 4.5276, 0.3411 -1.7586 3.937, 0.2898 -1.7677 4.5276, 0.2048 -1.7743 3.937, 0.2052 -1.7769 4.5276, 0.0686 -1.79 3.937, 0.097 -1.7887 4.5276, -0.0686 -1.7887 4.5276, 1.1883 -1.3334 3.937, 1.1597 -1.3653 4.5276, 1.086 -1.4246 3.937, 1.0053 -1.4827 4.5276, 0.9709 -1.4992 3.937, 0.9729 -1.5022 4.5276, 0.8558 -1.5737 3.937, 0.8391 -1.5827 4.5276, 0.7306 -1.6298 3.937, 0.7317 -1.6323 4.5276, 0.663 -1.6641 4.5276, 1.5353 -0.9127 3.937, 1.5349 -0.9235 4.5276, 1.4652 -1.0306 3.937, 1.4261 -1.0841 4.5276, 1.3779 -1.1364 3.937, 1.3801 -1.1381 4.5276, 1.2907 -1.2422 3.937, 1.3005 -1.2319 4.5276, 1.1906 -1.336 4.5276, 1.7808 -0.1367 3.937, 1.7808 -0.1937 4.5276, 1.7703 -0.2734 3.937, 1.7495 -0.3851 4.5276, 1.7391 -0.407 3.937, 1.7431 -0.4079 4.5276, 1.7079 -0.5405 3.937, 1.6976 -0.572 4.5276, 1.6566 -0.6677 3.937, 1.659 -0.6687 4.5276, 1.6053 -0.7949 3.937, 1.6258 -0.7522 4.5276, 1.5393 -0.9152 4.5276, 1.7391 0.407 3.937, 1.7495 0.3851 4.5276, 1.7703 0.2734 3.937, 1.7808 0.1937 4.5276, 1.7808 0.1367 3.937, 1.7839 0.137 4.5276, 1.7913 0.0 3.937, 1.7913 0.0 4.5276, 1.7839 -0.137 4.5276, 1.4652 1.0306 3.937, 1.5349 0.9235 4.5276, 1.5353 0.9127 3.937, 1.5393 0.9152 4.5276, 1.6053 0.7949 3.937, 1.6258 0.7522 4.5276, 1.6566 0.6677 3.937, 1.659 0.6687 4.5276, 1.7079 0.5405 3.937, 1.6976 0.572 4.5276, 1.7431 0.4079 4.5276, 0.9709 1.4992 3.937, 1.0053 1.4827 4.5276, 1.086 1.4246 3.937, 1.1597 1.3653 4.5276, 1.1883 1.3334 3.937, 1.1906 1.336 4.5276, 1.2907 1.2422 3.937, 1.3005 1.2319 4.5276, 1.3779 1.1364 3.937, 1.3801 1.1381 4.5276, 1.4261 1.0841 4.5276, 0.4733 1.7222 3.937, 0.4792 1.726 4.5276, 0.6055 1.6859 3.937, 0.663 1.6641 4.5276, 0.7306 1.6298 3.937, 0.7317 1.6323 4.5276, 0.8558 1.5737 3.937, 0.8391 1.5827 4.5276, 0.9729 1.5022 4.5276, -0.3401 1.7534 3.937, -0.2898 1.7677 4.5276, -0.2054 1.7795 3.937, -0.097 1.7887 4.5276, -0.0684 1.7848 3.937, -0.0686 1.7887 4.5276, 0.0686 1.79 3.937, 0.097 1.7887 4.5276, 0.2048 1.7743 3.937, 0.2052 1.7769 4.5276, 0.3411 1.7586 3.937, 0.2898 1.7677 4.5276, 0.4746 1.7271 4.5276, -0.8532 1.5691 3.937, -0.8391 1.5827 4.5276, -0.7328 1.6346 3.937, -0.663 1.6641 4.5276, -0.6037 1.681 3.937, -0.6048 1.6837 4.5276, -0.4747 1.7273 3.937, -0.4792 1.726 4.5276, -0.3406 1.7566 4.5276, -1.4609 1.0276 3.937, -1.4261 1.0841 4.5276, -1.382 1.1397 3.937, -1.3005 1.2319 4.5276, -1.2869 1.2385 3.937, -1.2902 1.2417 4.5276, -1.1918 1.3373 3.937, -1.1597 1.3653 4.5276, -1.0828 1.4205 3.937, -1.0844 1.4225 4.5276, -0.9737 1.5036 3.937, -1.0053 1.4827 4.5276, -0.8553 1.5729 4.5276, -1.7028 0.5389 3.937, -1.6976 0.572 4.5276, -1.6615 0.6696 3.937, -1.6258 0.7522 4.5276, -1.6006 0.7925 3.937, -1.6036 0.7939 4.5276, -1.5398 0.9154 3.937, -1.5349 0.9235 4.5276, -1.4632 1.0293 4.5276, -1.6036 -0.7939 4.5276, -1.6258 -0.7522 4.5276, -1.6615 -0.6696 3.937, -1.6976 -0.572 4.5276, -1.7028 -0.5389 3.937, -1.7064 -0.5401 4.5276, -1.7442 -0.4082 3.937, -1.7495 -0.3851 4.5276, -1.7652 -0.2726 3.937, -1.7678 -0.273 4.5276, -1.7861 -0.1371 3.937, -1.7808 -0.1937 4.5276, -1.7913 0.0 3.937, -1.7913 0.0 4.5276, -1.7861 0.1371 3.937, -1.7808 0.1937 4.5276, -1.7652 0.2726 3.937, -1.7678 0.273 4.5276, -1.7442 0.4082 3.937, -1.7495 0.3851 4.5276, -1.7064 0.5401 4.5276, 1.3058 -0.6466 3.5269, 1.2057 -0.815 3.5269, 1.1918 -0.8383 3.5269, 1.0518 -1.0081 3.5269, 1.0499 -1.0104 3.5269, 0.8834 -1.1588 3.5269, 0.8657 -1.1703 3.5269, 0.6961 -1.2801 3.5269, 0.6549 -1.2986 3.5269, 0.4925 -1.3714 3.5269, 0.4257 -1.3897 3.5269, 0.2774 -1.4305 3.5269, 0.1846 -1.4412 3.5269, 0.0558 -1.4561 3.5269, -0.0617 -1.4516 3.5269, -0.1671 -1.4475 3.5269, -0.3062 -1.4205 3.5269, -0.3861 -1.405 3.5269, -0.5422 -1.349 3.5269, -0.5961 -1.3296 3.5269, -0.763 -1.2389 3.5269, -0.7921 -1.2231 3.5269, -0.9623 -1.0933 3.5269, -0.9695 -1.0878 3.5269, -1.1242 -0.9271 3.5269, -1.1328 -0.9148 3.5269, -1.2525 -0.7446 3.5269, -1.2699 -0.7095 3.5269, -1.3515 -0.5447 3.5269, -1.3706 -0.4844 3.5269, -1.4188 -0.332 3.5269, -1.4321 -0.2456 3.5269, -1.4529 -0.1115 3.5269, -1.4571 0.0 3.5269, -1.4529 0.1115 3.5269, -1.4321 0.2456 3.5269, -1.4188 0.332 3.5269, -1.3706 0.4844 3.5269, -1.3515 0.5447 3.5269, -1.2699 0.7095 3.5269, -1.2525 0.7446 3.5269, -1.1328 0.9148 3.5269, -1.1242 0.9271 3.5269, -0.9695 1.0878 3.5269, -0.9623 1.0933 3.5269, -0.7921 1.2231 3.5269, -0.763 1.2389 3.5269, -0.5961 1.3296 3.5269, -0.5422 1.349 3.5269, -0.3861 1.405 3.5269, -0.3062 1.4205 3.5269, -0.1671 1.4475 3.5269, -0.0617 1.4516 3.5269, 0.0558 1.4561 3.5269, 0.1846 1.4412 3.5269, 0.2774 1.4305 3.5269, 0.4257 1.3897 3.5269, 0.4925 1.3714 3.5269, 0.6549 1.2986 3.5269, 0.6961 1.2801 3.5269, 0.8657 1.1703 3.5269, 0.8834 1.1588 3.5269, 1.0499 1.0104 3.5269, 1.0518 1.0081 3.5269, 1.1918 0.8383 3.5269, 1.2057 0.815 3.5269, 1.3058 0.6466 3.5269, 1.325 0.5991 3.5269, 1.3892 0.4396 3.5269, 1.4064 0.3663 3.5269, 1.4401 0.2224 3.5269, 1.4477 0.1233 3.5269, 1.4571 0.0 3.5269, 1.4477 -0.1233 3.5269, 1.4401 -0.2224 3.5269, 1.4064 -0.3663 3.5269, 1.3892 -0.4396 3.5269, 1.325 -0.5991 3.5269, -1.1305 -0.9129 0.927, -1.0682 -0.9911 0.927, -0.9603 -1.0912 0.927, -0.9085 -1.1392 0.927, -0.7626 -1.2387 0.927, -0.7286 -1.2619 0.927, -0.5429 -1.3513 0.927, 0.8648 -1.1691 0.927, 0.9085 -1.1392 0.927, -0.5324 -1.3564 0.927, -0.3242 -1.4206 0.927, -0.3068 -1.4232 0.927, -0.1089 -1.4531 0.927, -0.0618 -1.4531 0.927, 0.1089 -1.4531 0.927, 0.1845 -1.4417 0.927, 0.3242 -1.4206 0.927, 0.4255 -1.3894 0.927, 0.5324 -1.3564 0.927, 0.6543 -1.2977 0.927, 0.7286 -1.2619 0.927, 1.0509 -1.0071 0.927, 1.0682 -0.9911 0.927, 1.2039 -0.8208 0.927, 1.2069 -0.8157 0.927, 1.3128 -0.6322 0.927, 1.3257 -0.5994 0.927, 1.3924 -0.4295 0.927, 1.4068 -0.3664 0.927, 1.4409 -0.2172 0.927, 1.4479 -0.1233 0.927, 1.4571 -0.0 0.927, 1.4479 0.1233 0.927, 1.4409 0.2172 0.927, 1.4068 0.3664 0.927, 1.3924 0.4295 0.927, 1.3257 0.5994 0.927, 1.3128 0.6322 0.927, 1.2069 0.8157 0.927, 1.2039 0.8208 0.927, 1.0682 0.9911 0.927, 1.0509 1.0071 0.927, 0.9085 1.1392 0.927, 0.8648 1.1691 0.927, 0.7286 1.2619 0.927, 0.6543 1.2977 0.927, 0.5324 1.3564 0.927, 0.4255 1.3894 0.927, 0.3242 1.4206 0.927, 0.1845 1.4417 0.927, 0.1089 1.4531 0.927, -0.0618 1.4531 0.927, -0.1089 1.4531 0.927, -0.3068 1.4232 0.927, -1.4343 0.2458 0.927, -1.3924 0.4295 0.927, -1.3709 0.4843 0.927, -1.3128 0.6322 0.927, -1.2687 0.7087 0.927, -1.2039 0.8208 0.927, -1.1305 0.9129 0.927, -1.0682 0.9911 0.927, -0.9603 1.0912 0.927, -0.9085 1.1392 0.927, -0.7626 1.2387 0.927, -0.7286 1.2619 0.927, -0.5429 1.3513 0.927, -0.5324 1.3564 0.927, -0.3242 1.4206 0.927, -1.2039 -0.8208 0.927, -1.2687 -0.7087 0.927, -1.3128 -0.6322 0.927, -1.3709 -0.4843 0.927, -1.3924 -0.4295 0.927, -1.4343 -0.2458 0.927, -1.4409 -0.2172 0.927, -1.4571 0.0 0.927, -1.4409 0.2172 0.927, -1.8492 -0.2787 0.5906, -1.787 -0.5512 0.5906, -1.6849 -0.8114 0.5906, -1.5451 -1.0535 0.5906, -1.3709 -1.272 0.5906, -1.166 -1.4621 0.5906, -0.935 -1.6195 0.5906, -0.4161 -1.8232 0.5906, -0.6832 -1.7408 0.5906, -0.1398 -1.8648 0.5906, 0.1398 -1.8648 0.5906, 0.4161 -1.8232 0.5906, 0.6832 -1.7408 0.5906, 0.935 -1.6195 0.5906, 1.166 -1.4621 0.5906, 1.5451 -1.0535 0.5906, 1.3709 -1.272 0.5906, 1.6849 -0.8114 0.5906, 1.787 -0.5512 0.5906, 1.8492 -0.2787 0.5906, 1.8701 0.0 0.5906, 1.8492 0.2787 0.5906, 1.787 0.5512 0.5906, 1.6849 0.8114 0.5906, 1.3709 1.272 0.5906, 1.5451 1.0535 0.5906, 1.166 1.4621 0.5906, 0.935 1.6195 0.5906, 0.6832 1.7408 0.5906, 0.4161 1.8232 0.5906, 0.1398 1.8648 0.5906, -0.1398 1.8648 0.5906, -0.6832 1.7408 0.5906, -0.4161 1.8232 0.5906, -0.935 1.6195 0.5906, -1.166 1.4621 0.5906, -1.3709 1.272 0.5906, -1.5451 1.0535 0.5906, -1.6849 0.8114 0.5906, -1.787 0.5512 0.5906, -1.8701 0.0 0.5906, -1.8492 0.2787 0.5906, -1.8598 -0.1955 0.1969, -1.7858 -0.5509 0.1969, -1.8292 -0.3888 0.1969, -1.8467 -0.2783 0.1969, -1.7786 -0.5779 0.1969, -1.7084 -0.7606 0.1969, -1.5434 -1.0523 0.1969, -1.6195 -0.935 0.1969, -1.683 -0.8104 0.1969, -1.5129 -1.0992 0.1969, -1.3897 -1.2513 0.1969, -1.37 -1.2711 0.1969, -1.2513 -1.3897 0.1969, -1.1644 -1.4601 0.1969, -1.0992 -1.5129 0.1969, -0.935 -1.6195 0.1969, -0.7606 -1.7084 0.1969, -0.4158 -1.822 0.1969, -0.5779 -1.7786 0.1969, -0.6823 -1.7385 0.1969, -0.3888 -1.8292 0.1969, -0.1955 -1.8598 0.1969, 0.1396 -1.8628 0.1969, 0.0 -1.8701 0.1969, -0.1396 -1.8628 0.1969, 0.1955 -1.8598 0.1969, 0.3888 -1.8292 0.1969, 0.4158 -1.822 0.1969, 0.5779 -1.7786 0.1969, 0.6823 -1.7385 0.1969, 0.7606 -1.7084 0.1969, 0.935 -1.6195 0.1969, 1.0992 -1.5129 0.1969, 1.37 -1.2711 0.1969, 1.2513 -1.3897 0.1969, 1.1644 -1.4601 0.1969, 1.3897 -1.2513 0.1969, 1.5129 -1.0992 0.1969, 1.683 -0.8104 0.1969, 1.6195 -0.935 0.1969, 1.5434 -1.0523 0.1969, 1.7084 -0.7606 0.1969, 1.7786 -0.5779 0.1969, 1.7858 -0.5509 0.1969, 1.8292 -0.3888 0.1969, 1.8467 -0.2783 0.1969, 1.8598 -0.1955 0.1969, 1.8701 0.0 0.1969, 1.8598 0.1955 0.1969, 1.7858 0.5509 0.1969, 1.8292 0.3888 0.1969, 1.8467 0.2783 0.1969, 1.7786 0.5779 0.1969, 1.7084 0.7606 0.1969, 1.5434 1.0523 0.1969, 1.6195 0.935 0.1969, 1.683 0.8104 0.1969, 1.5129 1.0992 0.1969, 1.3897 1.2513 0.1969, 1.37 1.2711 0.1969, 1.2513 1.3897 0.1969, 1.1644 1.4601 0.1969, 1.0992 1.5129 0.1969, 0.935 1.6195 0.1969, 0.7606 1.7084 0.1969, 0.4158 1.822 0.1969, 0.5779 1.7786 0.1969, 0.6823 1.7385 0.1969, 0.3888 1.8292 0.1969, 0.1955 1.8598 0.1969, -0.1396 1.8628 0.1969, 0.0 1.8701 0.1969, 0.1396 1.8628 0.1969, -0.1955 1.8598 0.1969, -0.3888 1.8292 0.1969, -0.4158 1.822 0.1969, -0.5779 1.7786 0.1969, -0.6823 1.7385 0.1969, -0.7606 1.7084 0.1969, -0.935 1.6195 0.1969, -1.0992 1.5129 0.1969, -1.37 1.2711 0.1969, -1.2513 1.3897 0.1969, -1.1644 1.4601 0.1969, -1.3897 1.2513 0.1969, -1.5129 1.0992 0.1969, -1.683 0.8104 0.1969, -1.6195 0.935 0.1969, -1.5434 1.0523 0.1969, -1.7084 0.7606 0.1969, -1.7786 0.5779 0.1969, -1.7858 0.5509 0.1969, -1.8292 0.3888 0.1969, -1.8467 0.2783 0.1969, -1.8598 0.1955 0.1969, -1.8701 0.0 0.1969, -1.8227 0.3874 0.1459, -1.7722 0.5758 0.1459, -1.6137 0.9317 0.1459, -1.2468 1.3848 0.1459, -0.5758 1.7722 0.1459, -0.3874 1.8227 0.1459, 0.0 1.8634 0.1459, 0.5758 1.7722 0.1459, 1.2468 1.3848 0.1459, 1.3848 1.2468 0.1459, 1.6137 0.9317 0.1459, 1.8227 0.3874 0.1459, 1.8227 -0.3874 0.1459, 1.7722 -0.5758 0.1459, 1.6137 -0.9317 0.1459, 1.2468 -1.3848 0.1459, 0.5758 -1.7722 0.1459, 0.3874 -1.8227 0.1459, 0.0 -1.8634 0.1459, -0.5758 -1.7722 0.1459, -1.2468 -1.3848 0.1459, -1.3848 -1.2468 0.1459, -1.6137 -0.9317 0.1459, -1.8227 -0.3874 0.1459, -0.3585 1.6865 0.0067, -0.1802 1.7147 0.0067, 0.0 1.7242 0.0067, 0.1802 1.7147 0.0067, 0.5328 1.6398 0.0067, 1.3949 1.0134 0.0067, 1.7147 0.1802 0.0067, 1.7242 0.0 0.0067, 0.7013 -1.5751 0.0067, -1.3949 -1.0134 0.0067, -1.7147 -0.1802 0.0067, -0.1802 -1.7147 0.0067, 0.0 -1.7242 0.0067, 0.1802 -1.7147 0.0067, 0.3585 -1.6865 0.0067, 1.4932 -0.8621 0.0067, -1.7242 0.0 0.0067, -1.6865 -0.3585 0.0067, -1.7619 -0.1852 0.0264, -1.7329 -0.3683 0.0264, -1.8025 -0.1894 0.0577, -1.7728 -0.3768 0.0577, -1.8336 -0.1927 0.0984, -1.8034 -0.3833 0.0984, -1.8532 -0.1948 0.1459, -1.5751 -0.7013 0.0067, -1.4932 -0.8621 0.0067, -1.6185 -0.7206 0.0264, -1.5343 -0.8858 0.0264, -1.6557 -0.7372 0.0577, -1.5696 -0.9062 0.0577, -1.6843 -0.7499 0.0984, -1.5967 -0.9219 0.0984, -1.7023 -0.7579 0.1459, -0.7013 -1.5751 0.0067, -0.5328 -1.6398 0.0067, -0.7206 -1.6185 0.0264, -0.5475 -1.6849 0.0264, -0.7372 -1.6557 0.0577, -0.5601 -1.7237 0.0577, -0.7499 -1.6843 0.0984, -0.5697 -1.7535 0.0984, -0.7579 -1.7023 0.1459, -0.1852 -1.7619 0.0264, 0.0 -1.7717 0.0264, -0.1894 -1.8025 0.0577, 0.0 -1.8124 0.0577, -0.1927 -1.8336 0.0984, 0.0 -1.8437 0.0984, -0.1948 -1.8532 0.1459, 1.0134 -1.3949 0.0067, 1.1537 -1.2813 0.0067, 1.0414 -1.4333 0.0264, 1.1855 -1.3166 0.0264, 1.0653 -1.4663 0.0577, 1.2127 -1.3469 0.0577, 1.0837 -1.4916 0.0984, 1.2337 -1.3701 0.0984, 1.0953 -1.5075 0.1459, 1.5075 -1.0953 0.1459, 1.5967 -0.9219 0.0984, 1.4916 -1.0837 0.0984, 1.5696 -0.9062 0.0577, 1.4663 -1.0653 0.0577, 1.5343 -0.8858 0.0264, 1.4333 -1.0414 0.0264, 1.3949 -1.0134 0.0067, 1.6865 0.3585 0.0067, 1.7619 0.1852 0.0264, 1.7329 0.3683 0.0264, 1.8025 0.1894 0.0577, 1.7728 0.3768 0.0577, 1.8336 0.1927 0.0984, 1.8034 0.3833 0.0984, 1.8532 0.1948 0.1459, 1.5751 0.7013 0.0067, 1.4932 0.8621 0.0067, 1.6185 0.7206 0.0264, 1.5343 0.8858 0.0264, 1.6557 0.7372 0.0577, 1.5696 0.9062 0.0577, 1.6843 0.7499 0.0984, 1.5967 0.9219 0.0984, 1.7023 0.7579 0.1459, 0.7013 1.5751 0.0067, 0.7206 1.6185 0.0264, 0.5475 1.6849 0.0264, 0.7372 1.6557 0.0577, 0.5601 1.7237 0.0577, 0.7499 1.6843 0.0984, 0.5697 1.7535 0.0984, 0.7579 1.7023 0.1459, 0.1852 1.7619 0.0264, 0.0 1.7717 0.0264, 0.1894 1.8025 0.0577, 0.0 1.8124 0.0577, 0.1927 1.8336 0.0984, 0.0 1.8437 0.0984, 0.1948 1.8532 0.1459, -1.0134 1.3949 0.0067, -1.1537 1.2813 0.0067, -1.0414 1.4333 0.0264, -1.1855 1.3166 0.0264, -1.0653 1.4663 0.0577, -1.2127 1.3469 0.0577, -1.0837 1.4916 0.0984, -1.2337 1.3701 0.0984, -1.0953 1.5075 0.1459, -1.3949 1.0134 0.0067, -1.4932 0.8621 0.0067, -1.4333 1.0414 0.0264, -1.5343 0.8858 0.0264, -1.4663 1.0653 0.0577, -1.5696 0.9062 0.0577, -1.4916 1.0837 0.0984, -1.5967 0.9219 0.0984, -1.5075 1.0953 0.1459, -1.7717 0.0 0.0264, -1.8124 0.0 0.0577, -1.8437 0.0 0.0984, -1.8634 0.0 0.1459, -1.7722 -0.5758 0.1459, -1.7535 -0.5697 0.0984, -1.7237 -0.5601 0.0577, -1.6849 -0.5475 0.0264, -1.6398 -0.5328 0.0067, -1.5075 -1.0953 0.1459, -1.4916 -1.0837 0.0984, -1.4663 -1.0653 0.0577, -1.4333 -1.0414 0.0264, -1.2813 -1.1537 0.0067, -1.3166 -1.1855 0.0264, -1.3469 -1.2127 0.0577, -1.3701 -1.2337 0.0984, -1.2337 -1.3701 0.0984, -1.2127 -1.3469 0.0577, -1.1855 -1.3166 0.0264, -1.1537 -1.2813 0.0067, -1.0953 -1.5075 0.1459, -1.0837 -1.4916 0.0984, -1.0653 -1.4663 0.0577, -1.0414 -1.4333 0.0264, -1.0134 -1.3949 0.0067, -0.8621 -1.4932 0.0067, -0.8858 -1.5343 0.0264, -0.9062 -1.5696 0.0577, -0.9219 -1.5967 0.0984, -0.9317 -1.6137 0.1459, -0.3874 -1.8227 0.1459, -0.3833 -1.8034 0.0984, -0.3768 -1.7728 0.0577, -0.3683 -1.7329 0.0264, -0.3585 -1.6865 0.0067, 0.1948 -1.8532 0.1459, 0.1927 -1.8336 0.0984, 0.1894 -1.8025 0.0577, 0.1852 -1.7619 0.0264, 0.3683 -1.7329 0.0264, 0.3768 -1.7728 0.0577, 0.3833 -1.8034 0.0984, 0.5697 -1.7535 0.0984, 0.5601 -1.7237 0.0577, 0.5475 -1.6849 0.0264, 0.5328 -1.6398 0.0067, 0.7579 -1.7023 0.1459, 0.7499 -1.6843 0.0984, 0.7372 -1.6557 0.0577, 0.7206 -1.6185 0.0264, 0.8621 -1.4932 0.0067, 0.8858 -1.5343 0.0264, 0.9062 -1.5696 0.0577, 0.9219 -1.5967 0.0984, 0.9317 -1.6137 0.1459, 1.3848 -1.2468 0.1459, 1.3701 -1.2337 0.0984, 1.3469 -1.2127 0.0577, 1.3166 -1.1855 0.0264, 1.2813 -1.1537 0.0067, 1.7023 -0.7579 0.1459, 1.6843 -0.7499 0.0984, 1.6557 -0.7372 0.0577, 1.6185 -0.7206 0.0264, 1.5751 -0.7013 0.0067, 1.6398 -0.5328 0.0067, 1.6849 -0.5475 0.0264, 1.7237 -0.5601 0.0577, 1.7535 -0.5697 0.0984, 1.8034 -0.3833 0.0984, 1.7728 -0.3768 0.0577, 1.7329 -0.3683 0.0264, 1.6865 -0.3585 0.0067, 1.8532 -0.1948 0.1459, 1.8336 -0.1927 0.0984, 1.8025 -0.1894 0.0577, 1.7619 -0.1852 0.0264, 1.7147 -0.1802 0.0067, 1.7717 0.0 0.0264, 1.8124 0.0 0.0577, 1.8437 0.0 0.0984, 1.8634 0.0 0.1459, 1.7722 0.5758 0.1459, 1.7535 0.5697 0.0984, 1.7237 0.5601 0.0577, 1.6849 0.5475 0.0264, 1.6398 0.5328 0.0067, 1.5075 1.0953 0.1459, 1.4916 1.0837 0.0984, 1.4663 1.0653 0.0577, 1.4333 1.0414 0.0264, 1.2813 1.1537 0.0067, 1.3166 1.1855 0.0264, 1.3469 1.2127 0.0577, 1.3701 1.2337 0.0984, 1.2337 1.3701 0.0984, 1.2127 1.3469 0.0577, 1.1855 1.3166 0.0264, 1.1537 1.2813 0.0067, 1.0953 1.5075 0.1459, 1.0837 1.4916 0.0984, 1.0653 1.4663 0.0577, 1.0414 1.4333 0.0264, 1.0134 1.3949 0.0067, 0.8621 1.4932 0.0067, 0.8858 1.5343 0.0264, 0.9062 1.5696 0.0577, 0.9219 1.5967 0.0984, 0.9317 1.6137 0.1459, 0.3874 1.8227 0.1459, 0.3833 1.8034 0.0984, 0.3768 1.7728 0.0577, 0.3683 1.7329 0.0264, 0.3585 1.6865 0.0067, -0.1948 1.8532 0.1459, -0.1927 1.8336 0.0984, -0.1894 1.8025 0.0577, -0.1852 1.7619 0.0264, -0.3683 1.7329 0.0264, -0.3768 1.7728 0.0577, -0.3833 1.8034 0.0984, -0.5697 1.7535 0.0984, -0.5601 1.7237 0.0577, -0.5475 1.6849 0.0264, -0.5328 1.6398 0.0067, -0.7579 1.7023 0.1459, -0.7499 1.6843 0.0984, -0.7372 1.6557 0.0577, -0.7206 1.6185 0.0264, -0.7013 1.5751 0.0067, -0.8621 1.4932 0.0067, -0.8858 1.5343 0.0264, -0.9062 1.5696 0.0577, -0.9219 1.5967 0.0984, -0.9317 1.6137 0.1459, -1.3848 1.2468 0.1459, -1.3701 1.2337 0.0984, -1.3469 1.2127 0.0577, -1.3166 1.1855 0.0264, -1.2813 1.1537 0.0067, -1.7023 0.7579 0.1459, -1.6843 0.7499 0.0984, -1.6557 0.7372 0.0577, -1.6185 0.7206 0.0264, -1.5751 0.7013 0.0067, -1.6398 0.5328 0.0067, -1.6849 0.5475 0.0264, -1.7237 0.5601 0.0577, -1.7535 0.5697 0.0984, -1.8034 0.3833 0.0984, -1.7728 0.3768 0.0577, -1.7329 0.3683 0.0264, -1.6865 0.3585 0.0067, -1.8532 0.1948 0.1459, -1.8336 0.1927 0.0984, -1.8025 0.1894 0.0577, -1.7619 0.1852 0.0264, -1.7147 0.1802 0.0067, 1.7742 0.193 4.5785, 1.6912 0.5698 4.5785, 1.5292 0.9201 4.5785, 1.2956 1.2273 4.5785, 0.8359 1.5767 4.5785, 0.2887 1.7611 4.5785, 0.0966 1.782 4.5785, -0.0966 1.782 4.5785, -0.4774 1.7196 4.5785, -1.0015 1.4771 4.5785, -1.2956 1.2273 4.5785, -1.5292 0.9201 4.5785, -1.7429 0.3836 4.5785, -1.7429 -0.3836 4.5785, -1.5292 -0.9201 4.5785, -1.1553 -1.3602 4.5785, -1.0015 -1.4771 4.5785, -0.8359 -1.5767 4.5785, -0.4774 -1.7196 4.5785, 0.0966 -1.782 4.5785, 0.4774 -1.7196 4.5785, 0.8359 -1.5767 4.5785, 1.2956 -1.2273 4.5785, 1.6197 -0.7493 4.5785, 1.6912 -0.5698 4.5785, 1.5593 -0.5254 4.7177, 1.607 -0.3537 4.7177, 1.6533 -0.3639 4.698, 1.6358 -0.1779 4.7177, 1.683 -0.183 4.698, 1.7235 -0.1874 4.6668, 1.6454 0.0 4.7177, 1.6929 0.0 4.698, 1.7337 0.0 4.6668, 1.765 0.0 4.626, 1.6358 0.1779 4.7177, 1.683 0.183 4.698, 1.7235 0.1874 4.6668, 1.7546 0.1908 4.626, 1.7546 -0.1908 4.626, 1.7742 -0.193 4.5785, 1.7846 0.0 4.5785, 1.7429 -0.3836 4.5785, 1.7237 -0.3794 4.626, 1.6932 -0.3727 4.6668, 1.3099 -0.9958 4.7177, 1.1946 -1.1316 4.7177, 1.3477 -1.0245 4.698, 1.229 -1.1642 4.698, 1.3802 -1.0492 4.6668, 1.2586 -1.1923 4.6668, 1.4051 -1.0681 4.626, 1.2814 -1.2138 4.626, 1.4207 -1.08 4.5785, 0.9234 -1.3619 4.7177, 0.7707 -1.4538 4.7177, 0.95 -1.4012 4.698, 0.793 -1.4957 4.698, 0.9729 -1.4349 4.6668, 0.8121 -1.5317 4.6668, 0.9905 -1.4608 4.626, 0.8267 -1.5594 4.626, 1.0015 -1.4771 4.5785, 0.2662 -1.6238 4.7177, 0.0891 -1.643 4.7177, 0.2739 -1.6706 4.698, 0.0917 -1.6904 4.698, 0.2805 -1.7108 4.6668, 0.0939 -1.7311 4.6668, 0.2855 -1.7417 4.626, 0.0956 -1.7624 4.626, 0.2887 -1.7611 4.5785, -0.2662 -1.6238 4.7177, -0.4402 -1.5855 4.7177, -0.2739 -1.6706 4.698, -0.4529 -1.6312 4.698, -0.2805 -1.7108 4.6668, -0.4638 -1.6705 4.6668, -0.2855 -1.7417 4.626, -0.4722 -1.7006 4.626, -0.2887 -1.7611 4.5785, -1.3099 -0.9958 4.7177, -1.4099 -0.8483 4.7177, -1.3477 -1.0245 4.698, -1.4506 -0.8728 4.698, -1.3802 -1.0492 4.6668, -1.4855 -0.8938 4.6668, -1.4051 -1.0681 4.626, -1.5123 -0.9099 4.626, -1.4207 -1.08 4.5785, -1.5593 -0.5254 4.7177, -1.607 -0.3537 4.7177, -1.6043 -0.5405 4.698, -1.6533 -0.3639 4.698, -1.6429 -0.5536 4.6668, -1.6932 -0.3727 4.6668, -1.6726 -0.5636 4.626, -1.7237 -0.3794 4.626, -1.6912 -0.5698 4.5785, -1.6358 0.1779 4.7177, -1.607 0.3537 4.7177, -1.683 0.183 4.698, -1.6533 0.3639 4.698, -1.7235 0.1874 4.6668, -1.6932 0.3727 4.6668, -1.7546 0.1908 4.626, -1.7237 0.3794 4.626, -1.7742 0.193 4.5785, -1.4934 0.6909 4.7177, -1.4099 0.8483 4.7177, -1.5364 0.7108 4.698, -1.4506 0.8728 4.698, -1.5734 0.728 4.6668, -1.4855 0.8938 4.6668, -1.6018 0.7411 4.626, -1.5123 0.9099 4.626, -1.6197 0.7493 4.5785, -1.0652 1.2541 4.7177, -0.9234 1.3619 4.7177, -1.096 1.2903 4.698, -0.95 1.4012 4.698, -1.1224 1.3213 4.6668, -0.9729 1.4349 4.6668, -1.1426 1.3452 4.626, -0.9905 1.4608 4.626, -1.1553 1.3602 4.5785, -0.609 1.5286 4.7177, -0.4402 1.5855 4.7177, -0.6266 1.5727 4.698, -0.4529 1.6312 4.698, -0.6417 1.6106 4.6668, -0.4638 1.6705 4.6668, -0.6533 1.6396 4.626, -0.4722 1.7006 4.626, -0.6606 1.6579 4.5785, 0.609 1.5286 4.7177, 0.7707 1.4538 4.7177, 0.6266 1.5727 4.698, 0.793 1.4957 4.698, 0.6417 1.6106 4.6668, 0.8121 1.5317 4.6668, 0.6533 1.6396 4.626, 0.8267 1.5594 4.626, 0.6606 1.6579 4.5785, 1.0652 1.2541 4.7177, 1.1946 1.1316 4.7177, 1.096 1.2903 4.698, 1.229 1.1642 4.698, 1.1224 1.3213 4.6668, 1.2586 1.1923 4.6668, 1.1426 1.3452 4.626, 1.2814 1.2138 4.626, 1.1553 1.3602 4.5785, 1.4934 0.6909 4.7177, 1.5593 0.5254 4.7177, 1.5364 0.7108 4.698, 1.6043 0.5405 4.698, 1.5734 0.728 4.6668, 1.6429 0.5536 4.6668, 1.6018 0.7411 4.626, 1.6726 0.5636 4.626, 1.6197 0.7493 4.5785, 1.6726 -0.5636 4.626, 1.6429 -0.5536 4.6668, 1.6043 -0.5405 4.698, 1.6018 -0.7411 4.626, 1.5734 -0.728 4.6668, 1.5364 -0.7108 4.698, 1.4934 -0.6909 4.7177, 1.5292 -0.9201 4.5785, 1.5123 -0.9099 4.626, 1.4855 -0.8938 4.6668, 1.4506 -0.8728 4.698, 1.4099 -0.8483 4.7177, 1.1553 -1.3602 4.5785, 1.1426 -1.3452 4.626, 1.1224 -1.3213 4.6668, 1.096 -1.2903 4.698, 1.0652 -1.2541 4.7177, 0.6606 -1.6579 4.5785, 0.6533 -1.6396 4.626, 0.6417 -1.6106 4.6668, 0.6266 -1.5727 4.698, 0.609 -1.5286 4.7177, 0.4402 -1.5855 4.7177, 0.4529 -1.6312 4.698, 0.4638 -1.6705 4.6668, 0.4722 -1.7006 4.626, -0.0966 -1.782 4.5785, -0.0956 -1.7624 4.626, -0.0939 -1.7311 4.6668, -0.0917 -1.6904 4.698, -0.0891 -1.643 4.7177, -0.6606 -1.6579 4.5785, -0.6533 -1.6396 4.626, -0.6417 -1.6106 4.6668, -0.6266 -1.5727 4.698, -0.609 -1.5286 4.7177, -0.7707 -1.4538 4.7177, -0.793 -1.4957 4.698, -0.8121 -1.5317 4.6668, -0.8267 -1.5594 4.626, -0.9905 -1.4608 4.626, -0.9729 -1.4349 4.6668, -0.95 -1.4012 4.698, -0.9234 -1.3619 4.7177, -1.1426 -1.3452 4.626, -1.1224 -1.3213 4.6668, -1.096 -1.2903 4.698, -1.0652 -1.2541 4.7177, -1.2956 -1.2273 4.5785, -1.2814 -1.2138 4.626, -1.2586 -1.1923 4.6668, -1.229 -1.1642 4.698, -1.1946 -1.1316 4.7177, -1.6197 -0.7493 4.5785, -1.6018 -0.7411 4.626, -1.5734 -0.728 4.6668, -1.5364 -0.7108 4.698, -1.4934 -0.6909 4.7177, -1.7742 -0.193 4.5785, -1.7546 -0.1908 4.626, -1.7235 -0.1874 4.6668, -1.683 -0.183 4.698, -1.6358 -0.1779 4.7177, -1.6454 -0.0 4.7177, -1.6929 -0.0 4.698, -1.7337 -0.0 4.6668, -1.765 -0.0 4.626, -1.7846 -0.0 4.5785, -1.6912 0.5698 4.5785, -1.6726 0.5636 4.626, -1.6429 0.5536 4.6668, -1.6043 0.5405 4.698, -1.5593 0.5254 4.7177, -1.4207 1.08 4.5785, -1.4051 1.0681 4.626, -1.3802 1.0492 4.6668, -1.3477 1.0245 4.698, -1.3099 0.9958 4.7177, -1.1946 1.1316 4.7177, -1.229 1.1642 4.698, -1.2586 1.1923 4.6668, -1.2814 1.2138 4.626, -0.8359 1.5767 4.5785, -0.8267 1.5594 4.626, -0.8121 1.5317 4.6668, -0.793 1.4957 4.698, -0.7707 1.4538 4.7177, -0.2887 1.7611 4.5785, -0.2855 1.7417 4.626, -0.2805 1.7108 4.6668, -0.2739 1.6706 4.698, -0.2662 1.6238 4.7177, -0.0891 1.643 4.7177, -0.0917 1.6904 4.698, -0.0939 1.7311 4.6668, -0.0956 1.7624 4.626, 0.0956 1.7624 4.626, 0.0939 1.7311 4.6668, 0.0917 1.6904 4.698, 0.0891 1.643 4.7177, 0.2855 1.7417 4.626, 0.2805 1.7108 4.6668, 0.2739 1.6706 4.698, 0.2662 1.6238 4.7177, 0.4774 1.7196 4.5785, 0.4722 1.7006 4.626, 0.4638 1.6705 4.6668, 0.4529 1.6312 4.698, 0.4402 1.5855 4.7177, 1.0015 1.4771 4.5785, 0.9905 1.4608 4.626, 0.9729 1.4349 4.6668, 0.95 1.4012 4.698, 0.9234 1.3619 4.7177, 1.4207 1.08 4.5785, 1.4051 1.0681 4.626, 1.3802 1.0492 4.6668, 1.3477 1.0245 4.698, 1.3099 0.9958 4.7177, 1.4099 0.8483 4.7177, 1.4506 0.8728 4.698, 1.4855 0.8938 4.6668, 1.5123 0.9099 4.626, 1.7429 0.3836 4.5785, 1.7237 0.3794 4.626, 1.6932 0.3727 4.6668, 1.6533 0.3639 4.698, 1.607 0.3537 4.7177
            ]
        }
        coordIndex [
            0,1,2,-1,3,4,5,-1,5,6,3,-1,3,6,7,-1,3,7,8,-1,4,9,10,-1,10,11,4,-1,4,11,12,-1,4,12,5,-1,5,12,13,-1,5,13,14,-1,14,13,15,-1,14,15,16,-1,16,17,14,-1,14,17,18,-1,14,18,19,-1,20,21,14,-1,14,21,22,-1,23,24,25,-1,25,24,26,-1,22,27,14,-1,14,27,26,-1,14,26,28,-1,28,26,24,-1,19,29,14,-1,14,29,30,-1,14,30,20,-1,31,32,33,-1,33,32,9,-1,33,9,34,-1,34,9,4,-1,34,4,35,-1,36,37,38,-1,36,38,39,-1,40,41,42,-1,42,41,43,-1,44,45,42,-1,42,45,46,-1,42,46,40,-1,33,47,31,-1,31,47,42,-1,31,42,48,-1,48,42,43,-1,37,49,38,-1,38,49,50,-1,38,50,44,-1,8,51,52,-1,51,53,54,-1,54,53,55,-1,54,55,38,-1,38,55,56,-1,38,56,39,-1,57,58,59,-1,60,61,62,-1,62,61,63,-1,62,63,64,-1,59,65,57,-1,57,65,66,-1,57,66,67,-1,67,66,68,-1,67,68,62,-1,62,68,69,-1,62,69,60,-1,70,71,72,-1,70,72,73,-1,74,75,73,-1,73,75,76,-1,73,76,64,-1,64,76,77,-1,64,77,62,-1,72,78,79,-1,79,80,72,-1,72,80,81,-1,72,81,82,-1,82,83,72,-1,72,83,84,-1,72,84,73,-1,73,84,85,-1,73,85,74,-1,86,87,88,-1,88,87,89,-1,88,89,72,-1,72,89,90,-1,72,90,78,-1,86,88,91,-1,91,88,92,-1,91,92,93,-1,93,92,94,-1,94,92,52,-1,94,52,95,-1,51,54,52,-1,52,54,96,-1,52,96,95,-1,97,98,54,-1,98,99,54,-1,54,99,100,-1,54,100,96,-1,101,102,103,-1,103,104,101,-1,101,104,105,-1,101,105,106,-1,106,107,101,-1,101,107,108,-1,101,108,109,-1,110,111,112,-1,110,112,113,-1,111,114,112,-1,112,114,115,-1,112,115,102,-1,102,115,116,-1,102,116,103,-1,117,118,119,-1,119,118,120,-1,119,120,112,-1,112,120,121,-1,112,121,113,-1,122,119,123,-1,123,119,124,-1,122,125,119,-1,119,125,126,-1,119,126,117,-1,119,127,124,-1,124,127,128,-1,124,128,129,-1,129,128,130,-1,129,130,131,-1,131,130,132,-1,131,132,133,-1,133,132,134,-1,134,132,135,-1,135,132,136,-1,135,136,137,-1,138,139,140,-1,140,139,42,-1,140,42,141,-1,141,42,47,-1,142,143,144,-1,144,143,145,-1,146,147,148,-1,149,150,147,-1,147,150,151,-1,147,151,148,-1,152,153,154,-1,58,57,152,-1,152,57,155,-1,152,155,153,-1,156,157,158,-1,158,157,159,-1,158,159,160,-1,160,159,152,-1,160,152,161,-1,161,152,154,-1,156,162,157,-1,157,162,163,-1,157,163,148,-1,148,163,164,-1,148,164,146,-1,165,166,167,-1,167,166,168,-1,168,169,167,-1,167,169,170,-1,167,170,149,-1,149,170,171,-1,149,171,172,-1,172,173,149,-1,149,173,174,-1,149,174,150,-1,175,176,139,-1,177,178,179,-1,137,136,138,-1,138,136,180,-1,138,180,139,-1,139,180,181,-1,139,181,175,-1,176,182,139,-1,139,182,183,-1,139,183,177,-1,177,183,184,-1,177,184,178,-1,112,185,186,-1,187,188,119,-1,119,188,189,-1,119,189,127,-1,186,190,112,-1,112,190,191,-1,112,191,119,-1,119,191,192,-1,119,192,187,-1,179,193,177,-1,177,193,194,-1,177,194,101,-1,194,195,101,-1,101,195,196,-1,101,196,102,-1,102,196,197,-1,102,197,112,-1,112,197,198,-1,112,198,185,-1,199,200,201,-1,201,200,167,-1,201,167,202,-1,202,167,149,-1,202,149,143,-1,143,149,147,-1,143,147,145,-1,203,204,199,-1,199,204,205,-1,199,205,200,-1,200,205,206,-1,200,206,143,-1,143,206,207,-1,143,207,202,-1,208,209,200,-1,200,209,210,-1,200,210,211,-1,142,0,143,-1,143,0,2,-1,143,2,212,-1,212,213,143,-1,143,213,214,-1,143,214,215,-1,215,216,143,-1,143,216,217,-1,143,217,218,-1,211,219,200,-1,200,219,220,-1,200,220,221,-1,221,220,222,-1,221,222,2,-1,2,222,223,-1,2,223,212,-1,218,224,143,-1,143,224,225,-1,143,225,200,-1,200,225,226,-1,200,226,208,-1,1,35,2,-1,2,35,4,-1,2,4,227,-1,227,228,2,-1,2,228,229,-1,2,229,221,-1,221,229,230,-1,221,230,3,-1,3,230,231,-1,3,231,4,-1,4,231,232,-1,4,232,227,-1,233,234,235,-1,235,234,229,-1,235,229,236,-1,236,229,228,-1,236,228,237,-1,237,228,238,-1,44,42,38,-1,38,42,239,-1,38,239,240,-1,241,239,242,-1,242,239,42,-1,242,42,243,-1,243,42,139,-1,243,139,244,-1,244,139,177,-1,8,52,3,-1,3,52,92,-1,3,92,221,-1,221,92,88,-1,221,88,200,-1,200,88,72,-1,200,72,167,-1,167,72,71,-1,167,71,165,-1,240,244,38,-1,38,244,177,-1,38,177,54,-1,54,177,101,-1,54,101,97,-1,97,101,109,-1,245,246,247,-1,248,249,247,-1,247,249,250,-1,247,250,245,-1,251,252,247,-1,247,252,253,-1,247,253,248,-1,254,255,247,-1,247,255,256,-1,247,256,251,-1,257,258,247,-1,247,258,259,-1,247,259,254,-1,260,261,247,-1,247,261,262,-1,247,262,257,-1,263,264,247,-1,247,264,265,-1,247,265,260,-1,266,267,247,-1,247,267,268,-1,247,268,263,-1,269,270,247,-1,247,270,271,-1,247,271,266,-1,272,273,247,-1,247,273,274,-1,247,274,269,-1,275,276,247,-1,247,276,277,-1,247,277,272,-1,278,279,247,-1,247,279,280,-1,247,280,275,-1,281,282,247,-1,247,282,283,-1,247,283,278,-1,284,285,247,-1,247,285,286,-1,247,286,281,-1,287,288,247,-1,247,288,289,-1,247,289,284,-1,290,291,247,-1,247,291,292,-1,247,292,287,-1,293,294,247,-1,247,294,295,-1,247,295,290,-1,296,297,247,-1,247,297,298,-1,247,298,293,-1,299,300,247,-1,247,300,301,-1,247,301,296,-1,246,302,247,-1,247,302,303,-1,247,303,299,-1,304,305,306,-1,306,305,307,-1,306,307,308,-1,308,307,309,-1,308,309,310,-1,310,309,311,-1,310,311,312,-1,313,314,315,-1,315,314,316,-1,315,316,317,-1,317,316,318,-1,317,318,319,-1,319,318,320,-1,319,320,321,-1,321,320,322,-1,321,322,323,-1,323,322,324,-1,323,324,304,-1,304,324,325,-1,304,325,305,-1,326,327,328,-1,328,327,329,-1,328,329,330,-1,330,329,331,-1,330,331,332,-1,332,331,333,-1,332,333,313,-1,313,333,334,-1,313,334,314,-1,335,336,337,-1,337,336,338,-1,337,338,339,-1,339,338,340,-1,339,340,341,-1,341,340,342,-1,341,342,343,-1,343,342,344,-1,343,344,326,-1,326,344,345,-1,326,345,327,-1,346,347,348,-1,348,347,349,-1,348,349,350,-1,350,349,351,-1,350,351,352,-1,352,351,353,-1,352,353,354,-1,354,353,355,-1,354,355,335,-1,335,355,356,-1,335,356,336,-1,357,358,359,-1,359,358,360,-1,359,360,361,-1,361,360,362,-1,361,362,363,-1,363,362,364,-1,363,364,346,-1,346,364,365,-1,346,365,347,-1,366,367,368,-1,368,367,369,-1,368,369,370,-1,370,369,371,-1,370,371,372,-1,372,371,373,-1,372,373,374,-1,374,373,375,-1,374,375,376,-1,376,375,377,-1,376,377,357,-1,357,377,378,-1,357,378,358,-1,379,380,381,-1,381,380,382,-1,381,382,383,-1,383,382,384,-1,383,384,385,-1,385,384,386,-1,385,386,366,-1,366,386,387,-1,366,387,367,-1,388,389,390,-1,390,389,391,-1,390,391,392,-1,392,391,393,-1,392,393,394,-1,394,393,395,-1,394,395,396,-1,396,395,397,-1,396,397,379,-1,379,397,398,-1,379,398,380,-1,399,400,401,-1,401,400,402,-1,401,402,403,-1,403,402,404,-1,403,404,405,-1,405,404,406,-1,405,406,407,-1,407,406,408,-1,407,408,388,-1,388,408,409,-1,388,409,389,-1,410,411,412,-1,412,411,413,-1,412,413,414,-1,414,413,415,-1,414,415,416,-1,416,415,417,-1,416,417,399,-1,399,417,418,-1,399,418,400,-1,419,420,421,-1,421,420,422,-1,421,422,423,-1,423,422,424,-1,423,424,425,-1,425,424,426,-1,425,426,427,-1,427,426,428,-1,427,428,429,-1,429,428,430,-1,429,430,410,-1,410,430,431,-1,410,431,411,-1,432,433,434,-1,434,433,435,-1,434,435,436,-1,436,435,437,-1,436,437,438,-1,438,437,439,-1,438,439,419,-1,419,439,440,-1,419,440,420,-1,441,442,443,-1,443,442,444,-1,443,444,445,-1,445,444,446,-1,445,446,447,-1,447,446,448,-1,447,448,449,-1,449,448,450,-1,449,450,451,-1,451,450,452,-1,451,452,432,-1,432,452,453,-1,432,453,433,-1,454,455,456,-1,456,455,457,-1,456,457,458,-1,458,457,459,-1,458,459,460,-1,460,459,461,-1,460,461,441,-1,441,461,462,-1,441,462,442,-1,311,463,312,-1,312,463,464,-1,312,464,465,-1,465,464,466,-1,465,466,467,-1,467,466,468,-1,467,468,469,-1,469,468,470,-1,469,470,471,-1,471,470,472,-1,471,472,473,-1,473,472,474,-1,473,474,475,-1,475,474,476,-1,475,476,477,-1,477,476,478,-1,477,478,479,-1,479,478,480,-1,479,480,481,-1,481,480,482,-1,481,482,454,-1,454,482,483,-1,454,483,455,-1,484,357,485,-1,485,357,359,-1,485,359,486,-1,486,359,361,-1,486,361,487,-1,487,361,363,-1,487,363,488,-1,488,363,346,-1,488,346,489,-1,489,346,348,-1,489,348,490,-1,490,348,350,-1,490,350,491,-1,491,350,352,-1,491,352,492,-1,492,352,354,-1,492,354,493,-1,493,354,335,-1,493,335,494,-1,494,335,337,-1,494,337,495,-1,495,337,339,-1,495,339,496,-1,496,339,341,-1,496,341,497,-1,497,341,343,-1,497,343,498,-1,498,343,326,-1,498,326,499,-1,499,326,328,-1,499,328,500,-1,500,328,330,-1,500,330,501,-1,501,330,332,-1,501,332,502,-1,502,332,313,-1,502,313,503,-1,503,313,315,-1,503,315,504,-1,504,315,317,-1,504,317,505,-1,505,317,319,-1,505,319,506,-1,506,319,321,-1,506,321,507,-1,321,323,507,-1,507,323,304,-1,507,304,508,-1,508,304,306,-1,508,306,509,-1,509,306,308,-1,509,308,510,-1,510,308,310,-1,510,310,511,-1,511,310,312,-1,511,312,512,-1,512,312,465,-1,512,465,513,-1,513,465,467,-1,513,467,514,-1,514,467,469,-1,514,469,515,-1,515,469,471,-1,515,471,516,-1,516,471,473,-1,516,473,517,-1,517,473,475,-1,517,475,518,-1,518,475,477,-1,518,477,519,-1,519,477,479,-1,519,479,520,-1,520,479,481,-1,520,481,521,-1,521,481,454,-1,521,454,522,-1,522,454,456,-1,522,456,523,-1,523,456,458,-1,523,458,524,-1,524,458,460,-1,524,460,525,-1,525,460,441,-1,525,441,526,-1,441,443,526,-1,526,443,445,-1,526,445,527,-1,527,445,447,-1,527,447,528,-1,528,447,449,-1,528,449,529,-1,529,449,451,-1,529,451,530,-1,530,451,432,-1,530,432,531,-1,531,432,434,-1,531,434,532,-1,532,434,436,-1,532,436,533,-1,533,436,438,-1,533,438,534,-1,534,438,419,-1,534,419,535,-1,535,419,421,-1,535,421,536,-1,536,421,423,-1,536,423,537,-1,537,423,425,-1,537,425,538,-1,538,425,427,-1,538,427,539,-1,539,427,429,-1,539,429,540,-1,540,429,410,-1,540,410,541,-1,541,410,412,-1,541,412,542,-1,542,412,414,-1,542,414,543,-1,543,414,416,-1,543,416,544,-1,544,416,399,-1,544,399,545,-1,399,401,545,-1,545,401,403,-1,545,403,546,-1,546,403,405,-1,546,405,547,-1,547,405,407,-1,547,407,548,-1,548,407,388,-1,548,388,549,-1,549,388,390,-1,549,390,550,-1,550,390,392,-1,550,392,551,-1,551,392,394,-1,551,394,552,-1,552,394,396,-1,552,396,553,-1,553,396,379,-1,553,379,554,-1,554,379,381,-1,554,381,555,-1,555,381,383,-1,555,383,556,-1,556,383,385,-1,556,385,557,-1,557,385,366,-1,557,366,558,-1,558,366,368,-1,558,368,559,-1,559,368,370,-1,559,370,560,-1,560,370,372,-1,560,372,561,-1,561,372,374,-1,561,374,484,-1,484,374,376,-1,484,376,357,-1,507,562,563,-1,507,563,506,-1,563,564,506,-1,506,564,565,-1,506,565,505,-1,505,565,566,-1,505,566,504,-1,504,566,567,-1,504,567,503,-1,503,567,568,-1,503,568,502,-1,502,568,501,-1,488,569,570,-1,488,570,487,-1,568,571,501,-1,501,571,572,-1,501,572,500,-1,500,572,573,-1,500,573,499,-1,499,573,574,-1,499,574,498,-1,498,574,575,-1,498,575,497,-1,497,575,576,-1,497,576,496,-1,496,576,577,-1,496,577,495,-1,495,577,578,-1,495,578,494,-1,494,578,579,-1,494,579,493,-1,493,579,580,-1,493,580,492,-1,492,580,581,-1,492,581,491,-1,491,581,582,-1,491,582,490,-1,490,582,569,-1,490,569,489,-1,489,569,488,-1,570,583,487,-1,487,583,584,-1,487,584,486,-1,486,584,585,-1,486,585,485,-1,485,585,586,-1,485,586,484,-1,484,586,587,-1,484,587,561,-1,561,587,588,-1,561,588,560,-1,560,588,589,-1,560,589,559,-1,559,589,590,-1,559,590,558,-1,558,590,591,-1,558,591,557,-1,557,591,592,-1,557,592,556,-1,556,592,593,-1,556,593,555,-1,555,593,594,-1,555,594,554,-1,554,594,595,-1,554,595,553,-1,553,595,596,-1,553,596,552,-1,552,596,597,-1,552,597,551,-1,551,597,598,-1,551,598,550,-1,550,598,599,-1,550,599,549,-1,549,599,600,-1,549,600,548,-1,600,601,548,-1,548,601,602,-1,548,602,547,-1,547,602,603,-1,547,603,546,-1,546,603,604,-1,546,604,545,-1,545,604,605,-1,545,605,544,-1,544,605,543,-1,543,605,606,-1,543,606,542,-1,542,606,607,-1,542,607,541,-1,541,607,608,-1,541,608,540,-1,540,608,609,-1,540,609,539,-1,539,609,610,-1,539,610,538,-1,538,610,611,-1,538,611,537,-1,537,611,612,-1,537,612,536,-1,536,612,613,-1,536,613,535,-1,535,613,614,-1,535,614,534,-1,534,614,615,-1,534,615,533,-1,616,520,617,-1,617,520,521,-1,617,521,618,-1,618,521,522,-1,618,522,619,-1,619,522,523,-1,619,523,620,-1,620,523,524,-1,620,524,621,-1,621,524,525,-1,621,525,622,-1,622,525,526,-1,622,526,623,-1,623,526,527,-1,623,527,624,-1,624,527,528,-1,624,528,625,-1,625,528,529,-1,625,529,626,-1,626,529,530,-1,626,530,627,-1,627,530,531,-1,627,531,628,-1,628,531,532,-1,628,532,629,-1,629,532,533,-1,629,533,630,-1,630,533,615,-1,507,508,562,-1,562,508,509,-1,562,509,631,-1,631,509,510,-1,631,510,632,-1,632,510,511,-1,632,511,633,-1,633,511,512,-1,633,512,634,-1,634,512,513,-1,634,513,635,-1,635,513,514,-1,635,514,636,-1,636,514,515,-1,636,515,637,-1,637,515,516,-1,637,516,638,-1,638,516,517,-1,638,517,639,-1,639,517,518,-1,639,518,616,-1,616,518,519,-1,616,519,520,-1,636,640,641,-1,642,634,641,-1,641,634,635,-1,641,635,636,-1,643,632,642,-1,642,632,633,-1,642,633,634,-1,644,562,643,-1,643,562,631,-1,643,631,632,-1,645,564,644,-1,644,564,563,-1,644,563,562,-1,646,566,645,-1,645,566,565,-1,645,565,564,-1,647,571,648,-1,648,571,568,-1,648,568,646,-1,646,568,567,-1,646,567,566,-1,649,573,647,-1,647,573,572,-1,647,572,571,-1,650,575,649,-1,649,575,574,-1,649,574,573,-1,651,577,650,-1,650,577,576,-1,650,576,575,-1,652,579,651,-1,651,579,578,-1,651,578,577,-1,653,581,652,-1,652,581,580,-1,652,580,579,-1,654,569,653,-1,653,569,582,-1,653,582,581,-1,655,584,656,-1,656,584,583,-1,656,583,654,-1,654,583,570,-1,654,570,569,-1,657,586,655,-1,655,586,585,-1,655,585,584,-1,658,588,657,-1,657,588,587,-1,657,587,586,-1,659,590,658,-1,658,590,589,-1,658,589,588,-1,660,592,659,-1,659,592,591,-1,659,591,590,-1,661,594,660,-1,660,594,593,-1,660,593,592,-1,662,596,661,-1,661,596,595,-1,661,595,594,-1,663,598,662,-1,662,598,597,-1,662,597,596,-1,664,601,665,-1,665,601,600,-1,665,600,663,-1,663,600,599,-1,663,599,598,-1,666,603,664,-1,664,603,602,-1,664,602,601,-1,667,605,666,-1,666,605,604,-1,666,604,603,-1,668,607,667,-1,667,607,606,-1,667,606,605,-1,669,609,668,-1,668,609,608,-1,668,608,607,-1,670,611,669,-1,669,611,610,-1,669,610,609,-1,671,613,670,-1,670,613,612,-1,670,612,611,-1,672,630,673,-1,673,630,615,-1,673,615,671,-1,671,615,614,-1,671,614,613,-1,674,628,672,-1,672,628,629,-1,672,629,630,-1,675,626,674,-1,674,626,627,-1,674,627,628,-1,676,624,675,-1,675,624,625,-1,675,625,626,-1,677,622,676,-1,676,622,623,-1,676,623,624,-1,678,620,677,-1,677,620,621,-1,677,621,622,-1,679,618,678,-1,678,618,619,-1,678,619,620,-1,636,637,640,-1,640,637,638,-1,640,638,680,-1,680,638,639,-1,680,639,681,-1,681,639,616,-1,681,616,679,-1,679,616,617,-1,679,617,618,-1,682,640,680,-1,683,641,684,-1,684,641,640,-1,684,640,685,-1,685,640,682,-1,683,686,641,-1,641,686,687,-1,641,687,642,-1,688,643,689,-1,689,643,642,-1,689,642,690,-1,690,642,687,-1,688,691,643,-1,643,691,692,-1,643,692,644,-1,692,693,644,-1,644,693,694,-1,644,694,645,-1,694,695,645,-1,645,695,696,-1,645,696,646,-1,696,697,646,-1,646,697,698,-1,646,698,648,-1,699,647,700,-1,700,647,648,-1,700,648,701,-1,701,648,698,-1,699,702,647,-1,647,702,703,-1,647,703,649,-1,704,650,705,-1,705,650,649,-1,705,649,706,-1,706,649,703,-1,704,707,650,-1,650,707,708,-1,650,708,651,-1,708,709,651,-1,651,709,710,-1,651,710,652,-1,710,711,652,-1,652,711,712,-1,652,712,653,-1,712,713,653,-1,653,713,714,-1,653,714,654,-1,715,656,716,-1,716,656,654,-1,716,654,717,-1,717,654,714,-1,715,718,656,-1,656,718,719,-1,656,719,655,-1,720,657,721,-1,721,657,655,-1,721,655,722,-1,722,655,719,-1,720,723,657,-1,657,723,724,-1,657,724,658,-1,724,725,658,-1,658,725,726,-1,658,726,659,-1,726,727,659,-1,659,727,728,-1,659,728,660,-1,728,729,660,-1,660,729,730,-1,660,730,661,-1,731,662,732,-1,732,662,661,-1,732,661,733,-1,733,661,730,-1,731,734,662,-1,662,734,735,-1,662,735,663,-1,736,665,737,-1,737,665,663,-1,737,663,738,-1,738,663,735,-1,736,739,665,-1,665,739,740,-1,665,740,664,-1,740,741,664,-1,664,741,742,-1,664,742,666,-1,742,743,666,-1,666,743,744,-1,666,744,667,-1,744,745,667,-1,667,745,746,-1,667,746,668,-1,747,669,748,-1,748,669,668,-1,748,668,749,-1,749,668,746,-1,747,750,669,-1,669,750,751,-1,669,751,670,-1,752,671,753,-1,753,671,670,-1,753,670,754,-1,754,670,751,-1,752,755,671,-1,671,755,756,-1,671,756,673,-1,756,757,673,-1,673,757,758,-1,673,758,672,-1,758,759,672,-1,672,759,760,-1,672,760,674,-1,760,761,674,-1,674,761,762,-1,674,762,675,-1,763,676,764,-1,764,676,675,-1,764,675,765,-1,765,675,762,-1,763,766,676,-1,676,766,767,-1,676,767,677,-1,768,678,769,-1,769,678,677,-1,769,677,770,-1,770,677,767,-1,768,771,678,-1,678,771,772,-1,678,772,679,-1,772,773,679,-1,679,773,774,-1,679,774,681,-1,774,775,681,-1,681,775,776,-1,681,776,680,-1,680,776,777,-1,680,777,682,-1,775,774,778,-1,773,772,779,-1,768,769,780,-1,763,764,781,-1,759,758,782,-1,757,756,783,-1,752,753,784,-1,747,748,785,-1,743,742,786,-1,741,740,787,-1,736,737,788,-1,731,732,789,-1,727,726,790,-1,725,724,791,-1,720,721,792,-1,715,716,793,-1,711,710,794,-1,709,708,795,-1,704,705,796,-1,699,700,797,-1,695,694,798,-1,693,692,799,-1,688,689,800,-1,683,684,801,-1,142,144,802,-1,1,0,803,-1,34,35,804,-1,47,33,805,-1,138,140,806,-1,124,129,807,-1,118,117,808,-1,121,120,809,-1,97,109,810,-1,84,83,811,-1,62,77,812,-1,62,812,67,-1,87,86,813,-1,91,93,814,-1,94,95,815,-1,96,100,816,-1,97,810,98,-1,104,103,817,-1,817,103,116,-1,817,116,115,-1,155,57,818,-1,77,76,812,-1,812,76,819,-1,812,819,820,-1,820,819,821,-1,820,821,822,-1,822,821,823,-1,822,823,824,-1,824,823,825,-1,824,825,826,-1,826,825,801,-1,74,85,827,-1,827,85,828,-1,827,828,829,-1,829,828,830,-1,829,830,831,-1,831,830,832,-1,831,832,833,-1,833,832,834,-1,833,834,835,-1,835,834,800,-1,78,90,836,-1,836,90,837,-1,836,837,838,-1,838,837,839,-1,838,839,840,-1,840,839,841,-1,840,841,842,-1,842,841,843,-1,842,843,844,-1,844,843,797,-1,86,91,813,-1,813,91,814,-1,813,814,845,-1,845,814,846,-1,845,846,847,-1,847,846,848,-1,847,848,849,-1,849,848,850,-1,849,850,851,-1,851,850,796,-1,107,106,852,-1,852,106,853,-1,852,853,854,-1,854,853,855,-1,854,855,856,-1,856,855,857,-1,856,857,858,-1,858,857,859,-1,858,859,860,-1,860,859,793,-1,792,861,862,-1,862,861,863,-1,862,863,864,-1,864,863,865,-1,864,865,866,-1,866,865,867,-1,866,867,817,-1,817,867,868,-1,817,868,104,-1,117,126,808,-1,808,126,869,-1,808,869,870,-1,870,869,871,-1,870,871,872,-1,872,871,873,-1,872,873,874,-1,874,873,875,-1,874,875,876,-1,876,875,789,-1,122,123,877,-1,877,123,878,-1,877,878,879,-1,879,878,880,-1,879,880,881,-1,881,880,882,-1,881,882,883,-1,883,882,884,-1,883,884,885,-1,885,884,788,-1,137,138,886,-1,886,138,806,-1,886,806,887,-1,887,806,888,-1,887,888,889,-1,889,888,890,-1,889,890,891,-1,891,890,892,-1,891,892,893,-1,893,892,785,-1,33,34,805,-1,805,34,804,-1,805,804,894,-1,894,804,895,-1,894,895,896,-1,896,895,897,-1,896,897,898,-1,898,897,899,-1,898,899,900,-1,900,899,784,-1,901,902,903,-1,903,902,904,-1,903,904,905,-1,905,904,906,-1,905,906,907,-1,907,906,908,-1,907,908,909,-1,909,908,781,-1,910,911,912,-1,912,911,913,-1,912,913,914,-1,914,913,915,-1,914,915,916,-1,916,915,917,-1,916,917,918,-1,918,917,780,-1,57,67,818,-1,818,67,812,-1,818,812,919,-1,919,812,820,-1,919,820,920,-1,920,820,822,-1,920,822,921,-1,921,822,824,-1,921,824,922,-1,922,824,826,-1,922,826,777,-1,777,826,682,-1,801,684,826,-1,826,684,685,-1,826,685,682,-1,686,683,923,-1,923,683,801,-1,923,801,924,-1,924,801,825,-1,924,825,925,-1,925,825,823,-1,925,823,926,-1,926,823,821,-1,926,821,927,-1,927,821,819,-1,927,819,75,-1,75,819,76,-1,75,74,927,-1,927,74,827,-1,927,827,926,-1,926,827,829,-1,926,829,925,-1,925,829,831,-1,925,831,924,-1,924,831,833,-1,924,833,923,-1,923,833,835,-1,923,835,686,-1,686,835,687,-1,800,689,835,-1,835,689,690,-1,835,690,687,-1,691,688,928,-1,928,688,800,-1,928,800,929,-1,929,800,834,-1,929,834,930,-1,930,834,832,-1,930,832,931,-1,931,832,830,-1,931,830,811,-1,811,830,828,-1,811,828,84,-1,84,828,85,-1,83,82,811,-1,811,82,932,-1,811,932,931,-1,931,932,933,-1,931,933,930,-1,930,933,934,-1,930,934,929,-1,929,934,935,-1,929,935,928,-1,928,935,799,-1,928,799,691,-1,691,799,692,-1,694,693,798,-1,798,693,799,-1,798,799,936,-1,936,799,935,-1,936,935,937,-1,937,935,934,-1,937,934,938,-1,938,934,933,-1,938,933,939,-1,939,933,932,-1,939,932,81,-1,81,932,82,-1,696,695,940,-1,940,695,798,-1,940,798,941,-1,941,798,936,-1,941,936,942,-1,942,936,937,-1,942,937,943,-1,943,937,938,-1,943,938,944,-1,944,938,939,-1,944,939,80,-1,80,939,81,-1,80,79,944,-1,944,79,945,-1,944,945,943,-1,943,945,946,-1,943,946,942,-1,942,946,947,-1,942,947,941,-1,941,947,948,-1,941,948,940,-1,940,948,949,-1,940,949,696,-1,696,949,697,-1,79,78,945,-1,945,78,836,-1,945,836,946,-1,946,836,838,-1,946,838,947,-1,947,838,840,-1,947,840,948,-1,948,840,842,-1,948,842,949,-1,949,842,844,-1,949,844,697,-1,697,844,698,-1,797,700,844,-1,844,700,701,-1,844,701,698,-1,702,699,950,-1,950,699,797,-1,950,797,951,-1,951,797,843,-1,951,843,952,-1,952,843,841,-1,952,841,953,-1,953,841,839,-1,953,839,954,-1,954,839,837,-1,90,89,837,-1,837,89,87,-1,837,87,954,-1,954,87,813,-1,954,813,953,-1,953,813,845,-1,953,845,952,-1,952,845,847,-1,952,847,951,-1,951,847,849,-1,951,849,950,-1,950,849,851,-1,950,851,702,-1,702,851,703,-1,796,705,851,-1,851,705,706,-1,851,706,703,-1,707,704,955,-1,955,704,796,-1,955,796,956,-1,956,796,850,-1,956,850,957,-1,957,850,848,-1,957,848,958,-1,958,848,846,-1,958,846,815,-1,815,846,814,-1,815,814,94,-1,94,814,93,-1,95,96,815,-1,815,96,816,-1,815,816,958,-1,958,816,959,-1,958,959,957,-1,957,959,960,-1,957,960,956,-1,956,960,961,-1,956,961,955,-1,955,961,795,-1,955,795,707,-1,707,795,708,-1,710,709,794,-1,794,709,795,-1,794,795,962,-1,962,795,961,-1,962,961,963,-1,963,961,960,-1,963,960,964,-1,964,960,959,-1,964,959,965,-1,965,959,816,-1,712,711,966,-1,966,711,794,-1,966,794,967,-1,967,794,962,-1,967,962,968,-1,968,962,963,-1,968,963,969,-1,969,963,964,-1,969,964,810,-1,810,964,965,-1,810,965,98,-1,98,965,816,-1,98,816,99,-1,99,816,100,-1,109,108,810,-1,810,108,970,-1,810,970,969,-1,969,970,971,-1,969,971,968,-1,968,971,972,-1,968,972,967,-1,967,972,973,-1,967,973,966,-1,966,973,974,-1,966,974,712,-1,712,974,713,-1,108,107,970,-1,970,107,852,-1,970,852,971,-1,971,852,854,-1,971,854,972,-1,972,854,856,-1,972,856,973,-1,973,856,858,-1,973,858,974,-1,974,858,860,-1,974,860,713,-1,713,860,714,-1,793,716,860,-1,860,716,717,-1,860,717,714,-1,718,715,975,-1,975,715,793,-1,975,793,976,-1,976,793,859,-1,976,859,977,-1,977,859,857,-1,977,857,978,-1,978,857,855,-1,978,855,979,-1,979,855,853,-1,979,853,105,-1,105,853,106,-1,105,104,979,-1,979,104,868,-1,979,868,978,-1,978,868,867,-1,978,867,977,-1,977,867,865,-1,977,865,976,-1,976,865,863,-1,976,863,975,-1,975,863,861,-1,975,861,718,-1,718,861,719,-1,792,721,861,-1,861,721,722,-1,861,722,719,-1,723,720,980,-1,980,720,792,-1,980,792,981,-1,981,792,862,-1,981,862,982,-1,982,862,864,-1,982,864,983,-1,983,864,866,-1,983,866,984,-1,984,866,817,-1,984,817,114,-1,114,817,115,-1,114,111,984,-1,984,111,985,-1,984,985,983,-1,983,985,986,-1,983,986,982,-1,982,986,987,-1,982,987,981,-1,981,987,988,-1,981,988,980,-1,980,988,791,-1,980,791,723,-1,723,791,724,-1,726,725,790,-1,790,725,791,-1,790,791,989,-1,989,791,988,-1,989,988,990,-1,990,988,987,-1,990,987,991,-1,991,987,986,-1,991,986,992,-1,992,986,985,-1,992,985,110,-1,110,985,111,-1,728,727,993,-1,993,727,790,-1,993,790,994,-1,994,790,989,-1,994,989,995,-1,995,989,990,-1,995,990,996,-1,996,990,991,-1,996,991,997,-1,997,991,992,-1,997,992,113,-1,113,992,110,-1,113,121,997,-1,997,121,809,-1,997,809,996,-1,996,809,998,-1,996,998,995,-1,995,998,999,-1,995,999,994,-1,994,999,1000,-1,994,1000,993,-1,993,1000,1001,-1,993,1001,728,-1,728,1001,729,-1,120,118,809,-1,809,118,808,-1,809,808,998,-1,998,808,870,-1,998,870,999,-1,999,870,872,-1,999,872,1000,-1,1000,872,874,-1,1000,874,1001,-1,1001,874,876,-1,1001,876,729,-1,729,876,730,-1,789,732,876,-1,876,732,733,-1,876,733,730,-1,734,731,1002,-1,1002,731,789,-1,1002,789,1003,-1,1003,789,875,-1,1003,875,1004,-1,1004,875,873,-1,1004,873,1005,-1,1005,873,871,-1,1005,871,1006,-1,1006,871,869,-1,1006,869,125,-1,125,869,126,-1,125,122,1006,-1,1006,122,877,-1,1006,877,1005,-1,1005,877,879,-1,1005,879,1004,-1,1004,879,881,-1,1004,881,1003,-1,1003,881,883,-1,1003,883,1002,-1,1002,883,885,-1,1002,885,734,-1,734,885,735,-1,788,737,885,-1,885,737,738,-1,885,738,735,-1,739,736,1007,-1,1007,736,788,-1,1007,788,1008,-1,1008,788,884,-1,1008,884,1009,-1,1009,884,882,-1,1009,882,1010,-1,1010,882,880,-1,1010,880,807,-1,807,880,878,-1,807,878,124,-1,124,878,123,-1,129,131,807,-1,807,131,1011,-1,807,1011,1010,-1,1010,1011,1012,-1,1010,1012,1009,-1,1009,1012,1013,-1,1009,1013,1008,-1,1008,1013,1014,-1,1008,1014,1007,-1,1007,1014,787,-1,1007,787,739,-1,739,787,740,-1,742,741,786,-1,786,741,787,-1,786,787,1015,-1,1015,787,1014,-1,1015,1014,1016,-1,1016,1014,1013,-1,1016,1013,1017,-1,1017,1013,1012,-1,1017,1012,1018,-1,1018,1012,1011,-1,1018,1011,133,-1,133,1011,131,-1,744,743,1019,-1,1019,743,786,-1,1019,786,1020,-1,1020,786,1015,-1,1020,1015,1021,-1,1021,1015,1016,-1,1021,1016,1022,-1,1022,1016,1017,-1,1022,1017,1023,-1,1023,1017,1018,-1,1023,1018,134,-1,134,1018,133,-1,134,135,1023,-1,1023,135,1024,-1,1023,1024,1022,-1,1022,1024,1025,-1,1022,1025,1021,-1,1021,1025,1026,-1,1021,1026,1020,-1,1020,1026,1027,-1,1020,1027,1019,-1,1019,1027,1028,-1,1019,1028,744,-1,744,1028,745,-1,135,137,1024,-1,1024,137,886,-1,1024,886,1025,-1,1025,886,887,-1,1025,887,1026,-1,1026,887,889,-1,1026,889,1027,-1,1027,889,891,-1,1027,891,1028,-1,1028,891,893,-1,1028,893,745,-1,745,893,746,-1,785,748,893,-1,893,748,749,-1,893,749,746,-1,750,747,1029,-1,1029,747,785,-1,1029,785,1030,-1,1030,785,892,-1,1030,892,1031,-1,1031,892,890,-1,1031,890,1032,-1,1032,890,888,-1,1032,888,1033,-1,1033,888,806,-1,1033,806,141,-1,141,806,140,-1,141,47,1033,-1,1033,47,805,-1,1033,805,1032,-1,1032,805,894,-1,1032,894,1031,-1,1031,894,896,-1,1031,896,1030,-1,1030,896,898,-1,1030,898,1029,-1,1029,898,900,-1,1029,900,750,-1,750,900,751,-1,784,753,900,-1,900,753,754,-1,900,754,751,-1,755,752,1034,-1,1034,752,784,-1,1034,784,1035,-1,1035,784,899,-1,1035,899,1036,-1,1036,899,897,-1,1036,897,1037,-1,1037,897,895,-1,1037,895,803,-1,803,895,804,-1,803,804,1,-1,1,804,35,-1,0,142,803,-1,803,142,802,-1,803,802,1037,-1,1037,802,1038,-1,1037,1038,1036,-1,1036,1038,1039,-1,1036,1039,1035,-1,1035,1039,1040,-1,1035,1040,1034,-1,1034,1040,783,-1,1034,783,755,-1,755,783,756,-1,758,757,782,-1,782,757,783,-1,782,783,1041,-1,1041,783,1040,-1,1041,1040,1042,-1,1042,1040,1039,-1,1042,1039,1043,-1,1043,1039,1038,-1,1043,1038,1044,-1,1044,1038,802,-1,1044,802,145,-1,145,802,144,-1,760,759,1045,-1,1045,759,782,-1,1045,782,1046,-1,1046,782,1041,-1,1046,1041,1047,-1,1047,1041,1042,-1,1047,1042,1048,-1,1048,1042,1043,-1,1048,1043,1049,-1,1049,1043,1044,-1,1049,1044,147,-1,147,1044,145,-1,1049,1050,1048,-1,1048,1050,1051,-1,1048,1051,1047,-1,1047,1051,1052,-1,1047,1052,1046,-1,1046,1052,1053,-1,1046,1053,1045,-1,1045,1053,1054,-1,1045,1054,760,-1,760,1054,761,-1,1050,901,1051,-1,1051,901,903,-1,1051,903,1052,-1,1052,903,905,-1,1052,905,1053,-1,1053,905,907,-1,1053,907,1054,-1,1054,907,909,-1,1054,909,761,-1,761,909,762,-1,781,764,909,-1,909,764,765,-1,909,765,762,-1,766,763,1055,-1,1055,763,781,-1,1055,781,1056,-1,1056,781,908,-1,1056,908,1057,-1,1057,908,906,-1,1057,906,1058,-1,1058,906,904,-1,1058,904,1059,-1,1059,904,902,-1,1059,910,1058,-1,1058,910,912,-1,1058,912,1057,-1,1057,912,914,-1,1057,914,1056,-1,1056,914,916,-1,1056,916,1055,-1,1055,916,918,-1,1055,918,766,-1,766,918,767,-1,780,769,918,-1,918,769,770,-1,918,770,767,-1,771,768,1060,-1,1060,768,780,-1,1060,780,1061,-1,1061,780,917,-1,1061,917,1062,-1,1062,917,915,-1,1062,915,1063,-1,1063,915,913,-1,1063,913,1064,-1,1064,913,911,-1,1064,1065,1063,-1,1063,1065,1066,-1,1063,1066,1062,-1,1062,1066,1067,-1,1062,1067,1061,-1,1061,1067,1068,-1,1061,1068,1060,-1,1060,1068,779,-1,1060,779,771,-1,771,779,772,-1,774,773,778,-1,778,773,779,-1,778,779,1069,-1,1069,779,1068,-1,1069,1068,1070,-1,1070,1068,1067,-1,1070,1067,1071,-1,1071,1067,1066,-1,1071,1066,1072,-1,1072,1066,1065,-1,776,775,1073,-1,1073,775,778,-1,1073,778,1074,-1,1074,778,1069,-1,1074,1069,1075,-1,1075,1069,1070,-1,1075,1070,1076,-1,1076,1070,1071,-1,1076,1071,1077,-1,1077,1071,1072,-1,147,146,1049,-1,1049,146,164,-1,1049,164,1050,-1,1050,164,163,-1,1050,163,901,-1,901,163,162,-1,901,162,902,-1,902,162,156,-1,902,156,1059,-1,1059,156,158,-1,1059,158,910,-1,910,158,160,-1,910,160,911,-1,911,160,161,-1,911,161,1064,-1,1064,161,154,-1,1064,154,1065,-1,1065,154,153,-1,1065,153,1072,-1,1072,153,155,-1,1072,155,1077,-1,1077,155,818,-1,1077,818,1076,-1,1076,818,919,-1,1076,919,1075,-1,1075,919,920,-1,1075,920,1074,-1,1074,920,921,-1,1074,921,1073,-1,1073,921,922,-1,1073,922,776,-1,776,922,777,-1,384,382,1078,-1,398,397,1079,-1,391,389,1080,-1,408,406,1081,-1,418,417,1082,-1,431,430,1083,-1,428,426,1084,-1,424,422,1085,-1,440,439,1086,-1,453,452,1087,-1,446,444,1088,-1,462,461,1089,-1,483,482,1090,-1,472,470,1091,-1,463,311,1092,-1,325,324,1093,-1,322,320,1094,-1,318,316,1095,-1,334,333,1096,-1,345,344,1097,-1,338,336,1098,-1,355,353,1099,-1,365,364,1100,-1,378,377,1101,-1,375,373,1102,-1,1103,248,253,-1,249,248,1104,-1,1104,248,1103,-1,1104,1103,1105,-1,250,249,1106,-1,1106,249,1104,-1,1106,1104,1107,-1,1107,1104,1105,-1,1107,1105,1108,-1,245,250,1109,-1,1109,250,1106,-1,1109,1106,1110,-1,1110,1106,1107,-1,1110,1107,1111,-1,1111,1107,1108,-1,1111,1108,1112,-1,246,245,1113,-1,1113,245,1109,-1,1113,1109,1114,-1,1114,1109,1110,-1,1114,1110,1115,-1,1115,1110,1111,-1,1115,1111,1116,-1,1116,1111,1112,-1,1116,1112,1078,-1,1117,1118,1119,-1,1120,1118,1121,-1,1121,1118,1117,-1,1121,1117,1122,-1,251,256,1123,-1,1123,256,1124,-1,1123,1124,1125,-1,1125,1124,1126,-1,1125,1126,1127,-1,1127,1126,1128,-1,1127,1128,1129,-1,1129,1128,1130,-1,1129,1130,1131,-1,1131,1130,1100,-1,254,259,1132,-1,1132,259,1133,-1,1132,1133,1134,-1,1134,1133,1135,-1,1134,1135,1136,-1,1136,1135,1137,-1,1136,1137,1138,-1,1138,1137,1139,-1,1138,1139,1140,-1,1140,1139,1099,-1,262,261,1141,-1,1141,261,1142,-1,1141,1142,1143,-1,1143,1142,1144,-1,1143,1144,1145,-1,1145,1144,1146,-1,1145,1146,1147,-1,1147,1146,1148,-1,1147,1148,1149,-1,1149,1148,1097,-1,265,264,1150,-1,1150,264,1151,-1,1150,1151,1152,-1,1152,1151,1153,-1,1152,1153,1154,-1,1154,1153,1155,-1,1154,1155,1156,-1,1156,1155,1157,-1,1156,1157,1158,-1,1158,1157,1096,-1,270,269,1159,-1,1159,269,1160,-1,1159,1160,1161,-1,1161,1160,1162,-1,1161,1162,1163,-1,1163,1162,1164,-1,1163,1164,1165,-1,1165,1164,1166,-1,1165,1166,1167,-1,1167,1166,1092,-1,273,272,1168,-1,1168,272,1169,-1,1168,1169,1170,-1,1170,1169,1171,-1,1170,1171,1172,-1,1172,1171,1173,-1,1172,1173,1174,-1,1174,1173,1175,-1,1174,1175,1176,-1,1176,1175,1091,-1,275,280,1177,-1,1177,280,1178,-1,1177,1178,1179,-1,1179,1178,1180,-1,1179,1180,1181,-1,1181,1180,1182,-1,1181,1182,1183,-1,1183,1182,1184,-1,1183,1184,1185,-1,1185,1184,1090,-1,278,283,1186,-1,1186,283,1187,-1,1186,1187,1188,-1,1188,1187,1189,-1,1188,1189,1190,-1,1190,1189,1191,-1,1190,1191,1192,-1,1192,1191,1193,-1,1192,1193,1194,-1,1194,1193,1089,-1,286,285,1195,-1,1195,285,1196,-1,1195,1196,1197,-1,1197,1196,1198,-1,1197,1198,1199,-1,1199,1198,1200,-1,1199,1200,1201,-1,1201,1200,1202,-1,1201,1202,1203,-1,1203,1202,1087,-1,289,288,1204,-1,1204,288,1205,-1,1204,1205,1206,-1,1206,1205,1207,-1,1206,1207,1208,-1,1208,1207,1209,-1,1208,1209,1210,-1,1210,1209,1211,-1,1210,1211,1212,-1,1212,1211,1086,-1,294,293,1213,-1,1213,293,1214,-1,1213,1214,1215,-1,1215,1214,1216,-1,1215,1216,1217,-1,1217,1216,1218,-1,1217,1218,1219,-1,1219,1218,1220,-1,1219,1220,1221,-1,1221,1220,1082,-1,297,296,1222,-1,1222,296,1223,-1,1222,1223,1224,-1,1224,1223,1225,-1,1224,1225,1226,-1,1226,1225,1227,-1,1226,1227,1228,-1,1228,1227,1229,-1,1228,1229,1230,-1,1230,1229,1081,-1,299,303,1231,-1,1231,303,1232,-1,1231,1232,1233,-1,1233,1232,1234,-1,1233,1234,1235,-1,1235,1234,1236,-1,1235,1236,1237,-1,1237,1236,1238,-1,1237,1238,1239,-1,1239,1238,1079,-1,371,369,1120,-1,1120,369,367,-1,1120,367,1118,-1,1118,367,387,-1,1118,387,1119,-1,1119,387,386,-1,373,371,1102,-1,1102,371,1120,-1,1102,1120,1240,-1,1240,1120,1121,-1,1240,1121,1241,-1,1241,1121,1122,-1,1241,1122,1242,-1,377,375,1101,-1,1101,375,1102,-1,1101,1102,1243,-1,1243,1102,1240,-1,1243,1240,1244,-1,1244,1240,1241,-1,1244,1241,1245,-1,1245,1241,1242,-1,1245,1242,1246,-1,358,378,1247,-1,1247,378,1101,-1,1247,1101,1248,-1,1248,1101,1243,-1,1248,1243,1249,-1,1249,1243,1244,-1,1249,1244,1250,-1,1250,1244,1245,-1,1250,1245,1251,-1,1251,1245,1246,-1,1251,1246,252,-1,252,1246,253,-1,252,251,1251,-1,1251,251,1123,-1,1251,1123,1250,-1,1250,1123,1125,-1,1250,1125,1249,-1,1249,1125,1127,-1,1249,1127,1248,-1,1248,1127,1129,-1,1248,1129,1247,-1,1247,1129,1131,-1,1247,1131,358,-1,358,1131,360,-1,1100,364,1131,-1,1131,364,362,-1,1131,362,360,-1,347,365,1252,-1,1252,365,1100,-1,1252,1100,1253,-1,1253,1100,1130,-1,1253,1130,1254,-1,1254,1130,1128,-1,1254,1128,1255,-1,1255,1128,1126,-1,1255,1126,1256,-1,1256,1126,1124,-1,1256,1124,255,-1,255,1124,256,-1,255,254,1256,-1,1256,254,1132,-1,1256,1132,1255,-1,1255,1132,1134,-1,1255,1134,1254,-1,1254,1134,1136,-1,1254,1136,1253,-1,1253,1136,1138,-1,1253,1138,1252,-1,1252,1138,1140,-1,1252,1140,347,-1,347,1140,349,-1,1099,353,1140,-1,1140,353,351,-1,1140,351,349,-1,356,355,1257,-1,1257,355,1099,-1,1257,1099,1258,-1,1258,1099,1139,-1,1258,1139,1259,-1,1259,1139,1137,-1,1259,1137,1260,-1,1260,1137,1135,-1,1260,1135,1261,-1,1261,1135,1133,-1,1261,1133,258,-1,258,1133,259,-1,258,257,1261,-1,1261,257,1262,-1,1261,1262,1260,-1,1260,1262,1263,-1,1260,1263,1259,-1,1259,1263,1264,-1,1259,1264,1258,-1,1258,1264,1265,-1,1258,1265,1257,-1,1257,1265,1098,-1,1257,1098,356,-1,356,1098,336,-1,340,338,1149,-1,1149,338,1098,-1,1149,1098,1147,-1,1147,1098,1265,-1,1147,1265,1145,-1,1145,1265,1264,-1,1145,1264,1143,-1,1143,1264,1263,-1,1143,1263,1141,-1,1141,1263,1262,-1,1141,1262,262,-1,262,1262,257,-1,1097,344,1149,-1,1149,344,342,-1,1149,342,340,-1,327,345,1266,-1,1266,345,1097,-1,1266,1097,1267,-1,1267,1097,1148,-1,1267,1148,1268,-1,1268,1148,1146,-1,1268,1146,1269,-1,1269,1146,1144,-1,1269,1144,1270,-1,1270,1144,1142,-1,1270,1142,260,-1,260,1142,261,-1,260,265,1270,-1,1270,265,1150,-1,1270,1150,1269,-1,1269,1150,1152,-1,1269,1152,1268,-1,1268,1152,1154,-1,1268,1154,1267,-1,1267,1154,1156,-1,1267,1156,1266,-1,1266,1156,1158,-1,1266,1158,327,-1,327,1158,329,-1,1096,333,1158,-1,1158,333,331,-1,1158,331,329,-1,314,334,1271,-1,1271,334,1096,-1,1271,1096,1272,-1,1272,1096,1157,-1,1272,1157,1273,-1,1273,1157,1155,-1,1273,1155,1274,-1,1274,1155,1153,-1,1274,1153,1275,-1,1275,1153,1151,-1,1275,1151,263,-1,263,1151,264,-1,263,268,1275,-1,1275,268,1276,-1,1275,1276,1274,-1,1274,1276,1277,-1,1274,1277,1273,-1,1273,1277,1278,-1,1273,1278,1272,-1,1272,1278,1279,-1,1272,1279,1271,-1,1271,1279,1095,-1,1271,1095,314,-1,314,1095,316,-1,320,318,1094,-1,1094,318,1095,-1,1094,1095,1280,-1,1280,1095,1279,-1,1280,1279,1281,-1,1281,1279,1278,-1,1281,1278,1282,-1,1282,1278,1277,-1,1282,1277,1283,-1,1283,1277,1276,-1,1283,1276,267,-1,267,1276,268,-1,324,322,1093,-1,1093,322,1094,-1,1093,1094,1284,-1,1284,1094,1280,-1,1284,1280,1285,-1,1285,1280,1281,-1,1285,1281,1286,-1,1286,1281,1282,-1,1286,1282,1287,-1,1287,1282,1283,-1,1287,1283,266,-1,266,1283,267,-1,305,325,1288,-1,1288,325,1093,-1,1288,1093,1289,-1,1289,1093,1284,-1,1289,1284,1290,-1,1290,1284,1285,-1,1290,1285,1291,-1,1291,1285,1286,-1,1291,1286,1292,-1,1292,1286,1287,-1,1292,1287,271,-1,271,1287,266,-1,271,270,1292,-1,1292,270,1159,-1,1292,1159,1291,-1,1291,1159,1161,-1,1291,1161,1290,-1,1290,1161,1163,-1,1290,1163,1289,-1,1289,1163,1165,-1,1289,1165,1288,-1,1288,1165,1167,-1,1288,1167,305,-1,305,1167,307,-1,1092,311,1167,-1,1167,311,309,-1,1167,309,307,-1,464,463,1293,-1,1293,463,1092,-1,1293,1092,1294,-1,1294,1092,1166,-1,1294,1166,1295,-1,1295,1166,1164,-1,1295,1164,1296,-1,1296,1164,1162,-1,1296,1162,1297,-1,1297,1162,1160,-1,1297,1160,274,-1,274,1160,269,-1,274,273,1297,-1,1297,273,1168,-1,1297,1168,1296,-1,1296,1168,1170,-1,1296,1170,1295,-1,1295,1170,1172,-1,1295,1172,1294,-1,1294,1172,1174,-1,1294,1174,1293,-1,1293,1174,1176,-1,1293,1176,464,-1,464,1176,466,-1,1091,470,1176,-1,1176,470,468,-1,1176,468,466,-1,474,472,1298,-1,1298,472,1091,-1,1298,1091,1299,-1,1299,1091,1175,-1,1299,1175,1300,-1,1300,1175,1173,-1,1300,1173,1301,-1,1301,1173,1171,-1,1301,1171,1302,-1,1302,1171,1169,-1,1302,1169,277,-1,277,1169,272,-1,277,276,1302,-1,1302,276,1303,-1,1302,1303,1301,-1,1301,1303,1304,-1,1301,1304,1300,-1,1300,1304,1305,-1,1300,1305,1299,-1,1299,1305,1306,-1,1299,1306,1298,-1,1298,1306,1307,-1,1298,1307,474,-1,474,1307,476,-1,276,275,1303,-1,1303,275,1177,-1,1303,1177,1304,-1,1304,1177,1179,-1,1304,1179,1305,-1,1305,1179,1181,-1,1305,1181,1306,-1,1306,1181,1183,-1,1306,1183,1307,-1,1307,1183,1185,-1,1307,1185,476,-1,476,1185,478,-1,1090,482,1185,-1,1185,482,480,-1,1185,480,478,-1,455,483,1308,-1,1308,483,1090,-1,1308,1090,1309,-1,1309,1090,1184,-1,1309,1184,1310,-1,1310,1184,1182,-1,1310,1182,1311,-1,1311,1182,1180,-1,1311,1180,1312,-1,1312,1180,1178,-1,1312,1178,279,-1,279,1178,280,-1,279,278,1312,-1,1312,278,1186,-1,1312,1186,1311,-1,1311,1186,1188,-1,1311,1188,1310,-1,1310,1188,1190,-1,1310,1190,1309,-1,1309,1190,1192,-1,1309,1192,1308,-1,1308,1192,1194,-1,1308,1194,455,-1,455,1194,457,-1,1089,461,1194,-1,1194,461,459,-1,1194,459,457,-1,442,462,1313,-1,1313,462,1089,-1,1313,1089,1314,-1,1314,1089,1193,-1,1314,1193,1315,-1,1315,1193,1191,-1,1315,1191,1316,-1,1316,1191,1189,-1,1316,1189,1317,-1,1317,1189,1187,-1,1317,1187,282,-1,282,1187,283,-1,282,281,1317,-1,1317,281,1318,-1,1317,1318,1316,-1,1316,1318,1319,-1,1316,1319,1315,-1,1315,1319,1320,-1,1315,1320,1314,-1,1314,1320,1321,-1,1314,1321,1313,-1,1313,1321,1088,-1,1313,1088,442,-1,442,1088,444,-1,448,446,1203,-1,1203,446,1088,-1,1203,1088,1201,-1,1201,1088,1321,-1,1201,1321,1199,-1,1199,1321,1320,-1,1199,1320,1197,-1,1197,1320,1319,-1,1197,1319,1195,-1,1195,1319,1318,-1,1195,1318,286,-1,286,1318,281,-1,1087,452,1203,-1,1203,452,450,-1,1203,450,448,-1,433,453,1322,-1,1322,453,1087,-1,1322,1087,1323,-1,1323,1087,1202,-1,1323,1202,1324,-1,1324,1202,1200,-1,1324,1200,1325,-1,1325,1200,1198,-1,1325,1198,1326,-1,1326,1198,1196,-1,1326,1196,284,-1,284,1196,285,-1,284,289,1326,-1,1326,289,1204,-1,1326,1204,1325,-1,1325,1204,1206,-1,1325,1206,1324,-1,1324,1206,1208,-1,1324,1208,1323,-1,1323,1208,1210,-1,1323,1210,1322,-1,1322,1210,1212,-1,1322,1212,433,-1,433,1212,435,-1,1086,439,1212,-1,1212,439,437,-1,1212,437,435,-1,420,440,1327,-1,1327,440,1086,-1,1327,1086,1328,-1,1328,1086,1211,-1,1328,1211,1329,-1,1329,1211,1209,-1,1329,1209,1330,-1,1330,1209,1207,-1,1330,1207,1331,-1,1331,1207,1205,-1,1331,1205,287,-1,287,1205,288,-1,287,292,1331,-1,1331,292,1332,-1,1331,1332,1330,-1,1330,1332,1333,-1,1330,1333,1329,-1,1329,1333,1334,-1,1329,1334,1328,-1,1328,1334,1335,-1,1328,1335,1327,-1,1327,1335,1085,-1,1327,1085,420,-1,420,1085,422,-1,426,424,1084,-1,1084,424,1085,-1,1084,1085,1336,-1,1336,1085,1335,-1,1336,1335,1337,-1,1337,1335,1334,-1,1337,1334,1338,-1,1338,1334,1333,-1,1338,1333,1339,-1,1339,1333,1332,-1,1339,1332,291,-1,291,1332,292,-1,430,428,1083,-1,1083,428,1084,-1,1083,1084,1340,-1,1340,1084,1336,-1,1340,1336,1341,-1,1341,1336,1337,-1,1341,1337,1342,-1,1342,1337,1338,-1,1342,1338,1343,-1,1343,1338,1339,-1,1343,1339,290,-1,290,1339,291,-1,411,431,1344,-1,1344,431,1083,-1,1344,1083,1345,-1,1345,1083,1340,-1,1345,1340,1346,-1,1346,1340,1341,-1,1346,1341,1347,-1,1347,1341,1342,-1,1347,1342,1348,-1,1348,1342,1343,-1,1348,1343,295,-1,295,1343,290,-1,295,294,1348,-1,1348,294,1213,-1,1348,1213,1347,-1,1347,1213,1215,-1,1347,1215,1346,-1,1346,1215,1217,-1,1346,1217,1345,-1,1345,1217,1219,-1,1345,1219,1344,-1,1344,1219,1221,-1,1344,1221,411,-1,411,1221,413,-1,1082,417,1221,-1,1221,417,415,-1,1221,415,413,-1,400,418,1349,-1,1349,418,1082,-1,1349,1082,1350,-1,1350,1082,1220,-1,1350,1220,1351,-1,1351,1220,1218,-1,1351,1218,1352,-1,1352,1218,1216,-1,1352,1216,1353,-1,1353,1216,1214,-1,1353,1214,298,-1,298,1214,293,-1,298,297,1353,-1,1353,297,1222,-1,1353,1222,1352,-1,1352,1222,1224,-1,1352,1224,1351,-1,1351,1224,1226,-1,1351,1226,1350,-1,1350,1226,1228,-1,1350,1228,1349,-1,1349,1228,1230,-1,1349,1230,400,-1,400,1230,402,-1,1081,406,1230,-1,1230,406,404,-1,1230,404,402,-1,409,408,1354,-1,1354,408,1081,-1,1354,1081,1355,-1,1355,1081,1229,-1,1355,1229,1356,-1,1356,1229,1227,-1,1356,1227,1357,-1,1357,1227,1225,-1,1357,1225,1358,-1,1358,1225,1223,-1,1358,1223,301,-1,301,1223,296,-1,301,300,1358,-1,1358,300,1359,-1,1358,1359,1357,-1,1357,1359,1360,-1,1357,1360,1356,-1,1356,1360,1361,-1,1356,1361,1355,-1,1355,1361,1362,-1,1355,1362,1354,-1,1354,1362,1080,-1,1354,1080,409,-1,409,1080,389,-1,393,391,1239,-1,1239,391,1080,-1,1239,1080,1237,-1,1237,1080,1362,-1,1237,1362,1235,-1,1235,1362,1361,-1,1235,1361,1233,-1,1233,1361,1360,-1,1233,1360,1231,-1,1231,1360,1359,-1,1231,1359,299,-1,299,1359,300,-1,1079,397,1239,-1,1239,397,395,-1,1239,395,393,-1,380,398,1363,-1,1363,398,1079,-1,1363,1079,1364,-1,1364,1079,1238,-1,1364,1238,1365,-1,1365,1238,1236,-1,1365,1236,1366,-1,1366,1236,1234,-1,1366,1234,1367,-1,1367,1234,1232,-1,1367,1232,302,-1,302,1232,303,-1,302,246,1367,-1,1367,246,1113,-1,1367,1113,1366,-1,1366,1113,1114,-1,1366,1114,1365,-1,1365,1114,1115,-1,1365,1115,1364,-1,1364,1115,1116,-1,1364,1116,1363,-1,1363,1116,1078,-1,1363,1078,380,-1,380,1078,382,-1,253,1246,1103,-1,1103,1246,1242,-1,1103,1242,1105,-1,1105,1242,1122,-1,1105,1122,1108,-1,1108,1122,1117,-1,1108,1117,1112,-1,1112,1117,1119,-1,1112,1119,1078,-1,1078,1119,386,-1,1078,386,384,-1,
        ]
    }
}
Shape{
    appearance Appearance {
        material  Material 	{
            diffuseColor 0.6666666666666666 0.6666666666666666 0.6666666666666666
            specularColor 0.4666666666666667 0.4666666666666667 0.4666666666666667
            ambientIntensity 0.6667
            transparency 0.0
            shininess 0.5
        }
    }
    geometry IndexedFaceSet {
        ccw TRUE
        solid FALSE
        coord DEF co Coordinate {
            point [
                -1.0542 -0.1141 0.0, -1.0236 -0.1181 -1.9685, -1.0236 -0.1181 0.0, -0.9931 -0.1141 -1.9685, -1.0556 -0.1135 0.0, -1.0827 -0.1023 -1.9685, -1.0542 -0.1141 -1.9685, -1.1071 0.0835 0.0, -1.1259 0.0591 -1.9685, -1.1259 0.0591 0.0, -1.1377 0.0306 -1.9685, -1.1377 0.0306 0.0, -1.1417 0.0 -1.9685, -1.1417 0.0 0.0, -1.1377 -0.0306 -1.9685, -1.1377 -0.0306 0.0, -1.1259 -0.0591 -1.9685, -1.1259 -0.0591 0.0, -1.1071 -0.0835 -1.9685, -1.1071 -0.0835 0.0, -1.0827 -0.1023 0.0, -1.1042 0.0857 0.0, -1.0827 0.1023 -1.9685, -1.1071 0.0835 -1.9685, -1.0827 0.1023 0.0, -1.0542 0.1141 0.0, -1.0542 0.1141 -1.9685, -1.0236 0.1181 0.0, -1.0236 0.1181 -1.9685, -0.9931 0.1141 0.0, -0.9931 0.1141 -1.9685, -0.9646 0.1023 0.0, -0.9646 0.1023 -1.9685, -0.943 0.0857 0.0, -0.9401 0.0835 -1.9685, -0.9401 0.0835 0.0, -0.9213 0.0591 0.0, -0.9213 0.0591 -1.9685, -0.9095 0.0306 0.0, -0.9095 0.0306 -1.9685, -0.9055 0.0 0.0, -0.9055 0.0 -1.9685, -0.9095 -0.0306 0.0, -0.9095 -0.0306 -1.9685, -0.9213 -0.0591 0.0, -0.9213 -0.0591 -1.9685, -0.9401 -0.0835 0.0, -0.9401 -0.0835 -1.9685, -0.9646 -0.1023 0.0, -0.9646 -0.1023 -1.9685, -0.9917 -0.1135 0.0, -0.9931 -0.1141 0.0, -1.0236 0.0 -1.9685, 0.9931 -0.1141 0.0, 1.0236 -0.1181 -1.9685, 1.0236 -0.1181 0.0, 1.0542 -0.1141 -1.9685, 0.9917 -0.1135 0.0, 0.9646 -0.1023 -1.9685, 0.9931 -0.1141 -1.9685, 0.9401 0.0835 0.0, 0.9213 0.0591 -1.9685, 0.9213 0.0591 0.0, 0.9095 0.0306 -1.9685, 0.9095 0.0306 0.0, 0.9055 0.0 -1.9685, 0.9055 0.0 0.0, 0.9095 -0.0306 -1.9685, 0.9095 -0.0306 0.0, 0.9213 -0.0591 -1.9685, 0.9213 -0.0591 0.0, 0.9401 -0.0835 -1.9685, 0.9401 -0.0835 0.0, 0.9646 -0.1023 0.0, 0.943 0.0857 0.0, 0.9646 0.1023 -1.9685, 0.9401 0.0835 -1.9685, 0.9646 0.1023 0.0, 0.9931 0.1141 0.0, 0.9931 0.1141 -1.9685, 1.0236 0.1181 0.0, 1.0236 0.1181 -1.9685, 1.0542 0.1141 0.0, 1.0542 0.1141 -1.9685, 1.0827 0.1023 0.0, 1.0827 0.1023 -1.9685, 1.1042 0.0857 0.0, 1.1071 0.0835 -1.9685, 1.1071 0.0835 0.0, 1.1259 0.0591 0.0, 1.1259 0.0591 -1.9685, 1.1377 0.0306 0.0, 1.1377 0.0306 -1.9685, 1.1417 0.0 0.0, 1.1417 0.0 -1.9685, 1.1377 -0.0306 0.0, 1.1377 -0.0306 -1.9685, 1.1259 -0.0591 0.0, 1.1259 -0.0591 -1.9685, 1.1071 -0.0835 0.0, 1.1071 -0.0835 -1.9685, 1.0827 -0.1023 0.0, 1.0827 -0.1023 -1.9685, 1.0556 -0.1135 0.0, 1.0542 -0.1141 0.0, 1.0236 0.0 -1.9685
            ]
        }
        coordIndex [
            0,1,2,-1,2,1,3,-1,4,5,0,-1,0,5,6,-1,0,6,1,-1,7,8,9,-1,9,8,10,-1,9,10,11,-1,11,10,12,-1,11,12,13,-1,13,12,14,-1,13,14,15,-1,15,14,16,-1,15,16,17,-1,17,16,18,-1,17,18,19,-1,19,18,5,-1,19,5,20,-1,20,5,4,-1,21,22,7,-1,7,22,23,-1,7,23,8,-1,21,24,22,-1,22,24,25,-1,22,25,26,-1,26,25,27,-1,26,27,28,-1,28,27,29,-1,28,29,30,-1,30,29,31,-1,30,31,32,-1,32,31,33,-1,32,33,34,-1,33,35,34,-1,34,35,36,-1,34,36,37,-1,37,36,38,-1,37,38,39,-1,39,38,40,-1,39,40,41,-1,41,40,42,-1,41,42,43,-1,43,42,44,-1,43,44,45,-1,45,44,46,-1,45,46,47,-1,47,46,48,-1,47,48,49,-1,49,48,50,-1,49,50,3,-1,3,50,51,-1,3,51,2,-1,37,39,52,-1,52,39,41,-1,52,41,43,-1,30,32,52,-1,52,32,34,-1,52,34,37,-1,22,26,52,-1,52,26,28,-1,52,28,30,-1,10,8,52,-1,52,8,23,-1,52,23,22,-1,16,14,52,-1,52,14,12,-1,52,12,10,-1,6,5,52,-1,52,5,18,-1,52,18,16,-1,49,3,52,-1,52,3,1,-1,52,1,6,-1,43,45,52,-1,52,45,47,-1,52,47,49,-1,53,54,55,-1,55,54,56,-1,57,58,53,-1,53,58,59,-1,53,59,54,-1,60,61,62,-1,62,61,63,-1,62,63,64,-1,64,63,65,-1,64,65,66,-1,66,65,67,-1,66,67,68,-1,68,67,69,-1,68,69,70,-1,70,69,71,-1,70,71,72,-1,72,71,58,-1,72,58,73,-1,73,58,57,-1,74,75,60,-1,60,75,76,-1,60,76,61,-1,74,77,75,-1,75,77,78,-1,75,78,79,-1,79,78,80,-1,79,80,81,-1,81,80,82,-1,81,82,83,-1,83,82,84,-1,83,84,85,-1,85,84,86,-1,85,86,87,-1,86,88,87,-1,87,88,89,-1,87,89,90,-1,90,89,91,-1,90,91,92,-1,92,91,93,-1,92,93,94,-1,94,93,95,-1,94,95,96,-1,96,95,97,-1,96,97,98,-1,98,97,99,-1,98,99,100,-1,100,99,101,-1,100,101,102,-1,102,101,103,-1,102,103,56,-1,56,103,104,-1,56,104,55,-1,69,67,105,-1,105,67,65,-1,105,65,63,-1,59,58,105,-1,105,58,71,-1,105,71,69,-1,102,56,105,-1,105,56,54,-1,105,54,59,-1,96,98,105,-1,105,98,100,-1,105,100,102,-1,90,92,105,-1,105,92,94,-1,105,94,96,-1,83,85,105,-1,105,85,87,-1,105,87,90,-1,75,79,105,-1,105,79,81,-1,105,81,83,-1,63,61,105,-1,105,61,76,-1,105,76,75,-1,
        ]
    }
}
Shape{
    appearance Appearance {
        material  Material 	{
            diffuseColor 1.0 1.0 1.0
            specularColor 0.8784313725490196 0.8784313725490196 0.8784313725490196
            ambientIntensity 1.0
            transparency 0.0
            shininess 0.5
        }
    }
    geometry IndexedFaceSet {
        ccw TRUE
        solid FALSE
        coord DEF co Coordinate {
            point [
                -0.3337 0.0845 0.0394, -0.4105 -0.1123 0.0394, -0.3337 0.0845 0.0, -0.4105 -0.1123 0.0, -0.3817 -0.1123 0.0394, -0.3817 -0.1123 0.0, -0.3618 -0.0571 0.0394, -0.3618 -0.0571 0.0, -0.2805 -0.0571 0.0394, -0.2805 -0.0571 0.0, -0.2617 -0.1123 0.0394, -0.2617 -0.1123 0.0, -0.2329 -0.1123 0.0394, -0.2329 -0.1123 0.0, -0.3073 0.0845 0.0394, -0.3073 0.0845 0.0, -0.2871 -0.0355 0.0394, -0.3529 -0.0355 0.0394, -0.3165 0.0467 0.0394, -0.3184 0.0536 0.0394, -0.3196 0.0605 0.0394, -0.3203 0.0605 0.0394, -0.3215 0.0536 0.0394, -0.3233 0.0467 0.0394, -0.2871 -0.0355 0.0, -0.3529 -0.0355 0.0, -0.3165 0.0467 0.0, -0.3184 0.0536 0.0, -0.3196 0.0605 0.0, -0.3203 0.0605 0.0, -0.3215 0.0536 0.0, -0.3233 0.0467 0.0, -0.1135 -0.1123 0.0394, -0.06 -0.1123 0.0394, -0.1135 -0.1123 0.0, -0.06 -0.1123 0.0, -0.06 0.0845 0.0394, -0.06 0.0845 0.0, -0.1156 0.0845 0.0394, -0.1156 0.0845 0.0, -0.2185 -0.0114 0.0394, -0.2185 -0.0114 0.0, -0.217 0.0071 0.0, -0.217 0.0071 0.0394, -0.2117 0.0265 0.0, -0.2117 0.0265 0.0394, -0.2026 0.0434 0.0, -0.2026 0.0434 0.0394, -0.1887 0.0589 0.0, -0.1887 0.0589 0.0394, -0.1885 0.059 0.0, -0.1885 0.059 0.0394, -0.167 0.0734 0.0, -0.167 0.0734 0.0394, -0.144 0.0815 0.0, -0.144 0.0815 0.0394, -0.1379 -0.1102 0.0, -0.1379 -0.1102 0.0394, -0.1606 -0.1034 0.0, -0.1606 -0.1034 0.0394, -0.1811 -0.0915 0.0, -0.1811 -0.0915 0.0394, -0.1973 -0.076 0.0, -0.1973 -0.076 0.0394, -0.2086 -0.0584 0.0, -0.2086 -0.0584 0.0394, -0.2157 -0.0378 0.0, -0.2157 -0.0378 0.0394, -0.1789 0.0353 0.0394, -0.1694 0.0455 0.0394, -0.155 0.0548 0.0394, -0.1388 0.0605 0.0394, -0.1155 0.0629 0.0394, -0.0864 0.0629 0.0394, -0.0864 -0.0907 0.0394, -0.1144 -0.0907 0.0394, -0.1351 -0.0888 0.0394, -0.1517 -0.0836 0.0394, -0.1651 -0.0756 0.0394, -0.1762 -0.0647 0.0394, -0.1845 -0.0512 0.0394, -0.1902 -0.0327 0.0394, -0.192 -0.012 0.0394, -0.1904 0.0076 0.0394, -0.1858 0.0232 0.0394, -0.1155 0.0629 0.0, -0.0864 0.0629 0.0, -0.1388 0.0605 0.0, -0.155 0.0548 0.0, -0.1694 0.0455 0.0, -0.1789 0.0353 0.0, -0.1858 0.0232 0.0, -0.1904 0.0076 0.0, -0.192 -0.012 0.0, -0.1902 -0.0327 0.0, -0.1845 -0.0512 0.0, -0.1762 -0.0647 0.0, -0.1651 -0.0756 0.0, -0.1517 -0.0836 0.0, -0.1351 -0.0888 0.0, -0.1144 -0.0907 0.0, -0.0864 -0.0907 0.0, -0.0216 -0.0907 0.0394, -0.0216 -0.1123 0.0394, -0.0216 -0.0907 0.0, -0.0216 -0.1123 0.0, 0.084 -0.1123 0.0394, 0.084 -0.1123 0.0, 0.084 0.0845 0.0394, 0.084 0.0845 0.0, -0.0168 0.0845 0.0394, -0.0168 0.0845 0.0, -0.0168 0.0629 0.0394, -0.0168 0.0629 0.0, 0.0576 0.0629 0.0394, 0.0576 0.0629 0.0, 0.0576 -0.0019 0.0394, 0.0576 -0.0019 0.0, -0.012 -0.0019 0.0394, -0.012 -0.0019 0.0, -0.012 -0.0235 0.0394, -0.012 -0.0235 0.0, 0.0576 -0.0235 0.0394, 0.0576 -0.0235 0.0, 0.0576 -0.0907 0.0394, 0.0576 -0.0907 0.0, 0.1224 -0.0805 0.0394, 0.1224 -0.1021 0.0394, 0.1224 -0.0805 0.0, 0.1224 -0.1021 0.0, 0.1434 -0.1107 0.0394, 0.1766 -0.1147 0.0394, 0.1766 -0.1147 0.0, 0.1712 -0.1146 0.0, 0.1712 -0.1146 0.0394, 0.1633 -0.1135 0.0, 0.1434 -0.1107 0.0, 0.1882 -0.1135 0.0, 0.2009 -0.1122 0.0394, 0.2009 -0.1122 0.0, 0.2199 -0.1056 0.0394, 0.2199 -0.1056 0.0, 0.2358 -0.0955 0.0394, 0.2358 -0.0955 0.0, 0.2506 -0.08 0.0394, 0.2506 -0.08 0.0, 0.261 -0.0612 0.0394, 0.261 -0.0612 0.0, 0.267 -0.0404 0.0394, 0.267 -0.0404 0.0, 0.2689 -0.0176 0.0394, 0.2689 -0.0176 0.0, 0.1688 0.0869 0.0, 0.1835 0.0857 0.0, 0.1688 0.0869 0.0394, 0.1885 0.0853 0.0394, 0.1885 0.0853 0.0, 0.2105 0.0789 0.0, 0.2105 0.0789 0.0394, 0.2292 0.0682 0.0, 0.2292 0.0682 0.0394, 0.2469 0.0511 0.0, 0.2469 0.0511 0.0394, 0.2585 0.0327 0.0, 0.2585 0.0327 0.0394, 0.266 0.0104 0.0, 0.266 0.0104 0.0394, 0.1514 0.0857 0.0, 0.1452 0.0853 0.0394, 0.1452 0.0853 0.0, 0.1224 0.0791 0.0394, 0.1224 0.0791 0.0, 0.1224 0.0527 0.0394, 0.1224 0.0527 0.0, 0.1685 0.0653 0.0394, 0.1685 0.0653 0.0, 0.1446 0.0622 0.0, 0.1446 0.0622 0.0394, 0.2425 -0.016 0.0394, 0.2425 -0.016 0.0, 0.2415 -0.0007 0.0, 0.2415 -0.0007 0.0394, 0.2363 0.0204 0.0, 0.2363 0.0204 0.0394, 0.2282 0.0356 0.0, 0.2282 0.0356 0.0394, 0.2163 0.0487 0.0, 0.2163 0.0487 0.0394, 0.2026 0.0578 0.0, 0.2026 0.0578 0.0394, 0.1879 0.0632 0.0, 0.1879 0.0632 0.0394, 0.173 -0.0931 0.0394, 0.173 -0.0931 0.0, 0.1913 -0.0911 0.0, 0.1913 -0.0911 0.0394, 0.2057 -0.0858 0.0, 0.2057 -0.0858 0.0394, 0.2177 -0.0776 0.0, 0.2177 -0.0776 0.0394, 0.227 -0.0679 0.0, 0.227 -0.0679 0.0394, 0.2351 -0.0542 0.0, 0.2351 -0.0542 0.0394, 0.2405 -0.0373 0.0, 0.2405 -0.0373 0.0394, 0.126 -0.0825 0.0, 0.126 -0.0825 0.0394, 0.1468 -0.0902 0.0, 0.1468 -0.0902 0.0394, 0.2857 -0.0907 0.0394, 0.2857 -0.1123 0.0394, 0.2857 -0.0907 0.0, 0.2857 -0.1123 0.0, 0.3865 -0.1123 0.0394, 0.3865 -0.1123 0.0, 0.3865 0.0845 0.0394, 0.3865 0.0845 0.0, 0.3601 0.0845 0.0394, 0.3601 0.0845 0.0, 0.3601 -0.0907 0.0394, 0.3601 -0.0907 0.0
            ]
        }
        coordIndex [
            0,1,2,-1,2,1,3,-1,1,4,3,-1,3,4,5,-1,4,6,5,-1,5,6,7,-1,6,8,7,-1,7,8,9,-1,8,10,9,-1,9,10,11,-1,10,12,11,-1,11,12,13,-1,12,14,13,-1,13,14,15,-1,14,0,15,-1,15,0,2,-1,16,8,17,-1,17,8,6,-1,18,14,16,-1,16,14,12,-1,16,12,8,-1,8,12,10,-1,18,19,14,-1,14,19,20,-1,14,20,0,-1,0,20,21,-1,0,21,22,-1,22,23,0,-1,0,23,17,-1,0,17,1,-1,1,17,6,-1,1,6,4,-1,16,17,24,-1,24,17,25,-1,18,16,26,-1,26,16,24,-1,18,26,27,-1,18,27,19,-1,19,27,28,-1,19,28,20,-1,21,20,29,-1,29,20,28,-1,21,29,30,-1,21,30,22,-1,22,30,31,-1,22,31,23,-1,17,23,25,-1,25,23,31,-1,32,33,34,-1,34,33,35,-1,33,36,35,-1,35,36,37,-1,36,38,37,-1,37,38,39,-1,40,41,42,-1,40,42,43,-1,43,42,44,-1,43,44,45,-1,45,44,46,-1,45,46,47,-1,47,46,48,-1,47,48,49,-1,49,48,50,-1,49,50,51,-1,51,50,52,-1,51,52,53,-1,53,52,54,-1,53,54,55,-1,55,54,39,-1,55,39,38,-1,32,34,56,-1,32,56,57,-1,57,56,58,-1,57,58,59,-1,59,58,60,-1,59,60,61,-1,61,60,62,-1,61,62,63,-1,63,62,64,-1,63,64,65,-1,65,64,66,-1,65,66,67,-1,67,66,41,-1,67,41,40,-1,45,47,68,-1,68,47,49,-1,68,49,69,-1,69,49,51,-1,69,51,70,-1,70,51,53,-1,70,53,71,-1,71,53,55,-1,71,55,72,-1,72,55,38,-1,72,38,73,-1,73,38,36,-1,73,36,74,-1,74,36,33,-1,74,33,75,-1,75,33,32,-1,75,32,76,-1,76,32,57,-1,76,57,77,-1,77,57,59,-1,77,59,78,-1,78,59,61,-1,78,61,79,-1,79,61,63,-1,79,63,80,-1,80,63,65,-1,80,65,81,-1,81,65,67,-1,81,67,82,-1,82,67,40,-1,82,40,83,-1,83,40,43,-1,83,43,84,-1,84,43,45,-1,84,45,68,-1,72,73,85,-1,85,73,86,-1,72,85,87,-1,72,87,71,-1,71,87,88,-1,71,88,70,-1,70,88,89,-1,70,89,69,-1,69,89,90,-1,69,90,68,-1,68,90,91,-1,68,91,84,-1,84,91,92,-1,84,92,83,-1,83,92,93,-1,83,93,82,-1,82,93,94,-1,82,94,81,-1,81,94,95,-1,81,95,80,-1,80,95,96,-1,80,96,79,-1,79,96,97,-1,79,97,78,-1,78,97,98,-1,78,98,77,-1,77,98,99,-1,77,99,76,-1,76,99,100,-1,76,100,75,-1,74,75,101,-1,101,75,100,-1,73,74,86,-1,86,74,101,-1,102,103,104,-1,104,103,105,-1,103,106,105,-1,105,106,107,-1,106,108,107,-1,107,108,109,-1,108,110,109,-1,109,110,111,-1,110,112,111,-1,111,112,113,-1,112,114,113,-1,113,114,115,-1,114,116,115,-1,115,116,117,-1,116,118,117,-1,117,118,119,-1,118,120,119,-1,119,120,121,-1,120,122,121,-1,121,122,123,-1,122,124,123,-1,123,124,125,-1,124,102,125,-1,125,102,104,-1,106,103,102,-1,102,124,106,-1,106,124,122,-1,106,122,108,-1,112,110,114,-1,114,110,108,-1,114,108,116,-1,116,108,122,-1,116,122,118,-1,118,122,120,-1,126,127,128,-1,128,127,129,-1,129,127,130,-1,131,132,133,-1,131,133,134,-1,134,133,135,-1,134,135,130,-1,130,135,136,-1,130,136,129,-1,132,131,137,-1,137,131,138,-1,137,138,139,-1,139,138,140,-1,139,140,141,-1,141,140,142,-1,141,142,143,-1,143,142,144,-1,143,144,145,-1,145,144,146,-1,145,146,147,-1,147,146,148,-1,147,148,149,-1,149,148,150,-1,149,150,151,-1,152,153,154,-1,154,153,155,-1,153,156,155,-1,155,156,157,-1,155,157,158,-1,158,157,159,-1,158,159,160,-1,160,159,161,-1,160,161,162,-1,162,161,163,-1,162,163,164,-1,164,163,165,-1,164,165,166,-1,166,165,151,-1,166,151,150,-1,152,154,167,-1,167,154,168,-1,167,168,169,-1,169,168,170,-1,169,170,171,-1,170,172,171,-1,171,172,173,-1,174,175,176,-1,174,176,177,-1,177,176,173,-1,177,173,172,-1,178,179,180,-1,178,180,181,-1,181,180,182,-1,181,182,183,-1,183,182,184,-1,183,184,185,-1,185,184,186,-1,185,186,187,-1,187,186,188,-1,187,188,189,-1,189,188,190,-1,189,190,191,-1,191,190,175,-1,191,175,174,-1,192,193,194,-1,192,194,195,-1,195,194,196,-1,195,196,197,-1,197,196,198,-1,197,198,199,-1,199,198,200,-1,199,200,201,-1,201,200,202,-1,201,202,203,-1,203,202,204,-1,203,204,205,-1,205,204,179,-1,205,179,178,-1,126,128,206,-1,126,206,207,-1,207,206,208,-1,207,208,209,-1,209,208,193,-1,209,193,192,-1,195,131,192,-1,192,131,134,-1,192,134,209,-1,209,134,130,-1,209,130,207,-1,207,130,127,-1,207,127,126,-1,172,170,177,-1,177,170,168,-1,177,168,174,-1,174,168,154,-1,174,154,191,-1,191,154,155,-1,191,155,189,-1,189,155,158,-1,189,158,187,-1,187,158,160,-1,187,160,185,-1,185,160,162,-1,185,162,183,-1,183,162,164,-1,183,164,181,-1,181,164,166,-1,181,166,178,-1,178,166,150,-1,178,150,205,-1,205,150,148,-1,205,148,203,-1,203,148,146,-1,203,146,201,-1,201,146,144,-1,201,144,199,-1,199,144,142,-1,199,142,197,-1,197,142,140,-1,197,140,195,-1,195,140,138,-1,195,138,131,-1,210,211,212,-1,212,211,213,-1,211,214,213,-1,213,214,215,-1,214,216,215,-1,215,216,217,-1,216,218,217,-1,217,218,219,-1,218,220,219,-1,219,220,221,-1,220,210,221,-1,221,210,212,-1,218,216,220,-1,220,216,214,-1,220,214,210,-1,210,214,211,-1,
        ]
    }
}
Shape{
    appearance Appearance {
        material  Material 	{
            diffuseColor 0.20784313725490197 0.20784313725490197 0.20784313725490197
            specularColor 0.01568627450980392 0.01568627450980392 0.01568627450980392
            ambientIntensity 0.298
            transparency 0.0
            shininess 0.5
        }
    }
    geometry IndexedFaceSet {
        ccw TRUE
        solid FALSE
        coord DEF co Coordinate {
            point [
                -0.2871 -0.0355 0.0, -0.3529 -0.0355 0.0, -0.3165 0.0467 0.0, -0.3233 0.0467 0.0, -0.3184 0.0536 0.0, -0.3215 0.0536 0.0, -0.3196 0.0605 0.0, -0.3203 0.0605 0.0, -0.0864 0.0629 0.0, -0.0864 -0.0907 0.0, -0.1155 0.0629 0.0, -0.1144 -0.0907 0.0, -0.1351 -0.0888 0.0, -0.192 -0.012 0.0, -0.1904 0.0076 0.0, -0.1858 0.0232 0.0, -0.1388 0.0605 0.0, -0.1517 -0.0836 0.0, -0.1651 -0.0756 0.0, -0.1762 -0.0647 0.0, -0.1845 -0.0512 0.0, -0.1902 -0.0327 0.0, -0.1789 0.0353 0.0, -0.1694 0.0455 0.0, -0.155 0.0548 0.0
            ]
        }
        coordIndex [
            0,1,2,-1,2,1,3,-1,2,3,4,-1,4,3,5,-1,4,5,6,-1,6,5,7,-1,8,9,10,-1,10,9,11,-1,10,11,12,-1,13,14,10,-1,10,14,15,-1,10,15,16,-1,12,17,10,-1,10,17,18,-1,10,18,19,-1,19,20,10,-1,10,20,21,-1,10,21,13,-1,22,23,15,-1,15,23,24,-1,15,24,16,-1,
        ]
    }
}